<svg id="svg" xmlns="http://www.w3.org/2000/svg" xmlns:xlink="http://www.w3.org/1999/xlink" width="400" height="184.6766169154229" viewBox="0, 0, 400,184.6766169154229"><g id="svgg"><path id="path0" d="M127.113 61.800 C 126.497 62.001,125.823 62.041,124.514 61.957 C 122.473 61.825,122.085 61.918,119.538 63.154 C 114.827 65.440,113.756 69.649,117.885 69.653 C 118.991 69.654,119.169 69.873,119.169 71.233 C 119.169 73.485,120.638 74.827,123.107 74.827 C 123.950 74.827,123.980 74.846,124.364 75.664 C 124.966 76.944,125.789 77.522,127.792 78.071 C 128.014 78.131,127.955 78.685,127.656 79.353 C 127.565 79.557,127.080 81.178,126.579 82.956 C 126.078 84.734,125.535 86.605,125.373 87.113 C 124.834 88.801,124.736 89.133,124.250 90.901 C 123.984 91.866,123.617 93.113,123.433 93.672 C 123.249 94.231,122.992 95.062,122.862 95.520 C 122.732 95.977,122.513 96.707,122.375 97.143 C 121.856 98.785,121.742 98.721,124.942 98.593 C 126.492 98.531,130.919 98.432,134.781 98.371 C 138.856 98.307,142.073 98.179,142.448 98.065 C 147.298 96.596,150.248 93.770,151.814 89.093 C 153.122 85.188,152.458 79.134,150.453 76.674 C 150.328 76.522,149.858 75.890,149.407 75.271 C 148.506 74.032,146.103 72.119,144.751 71.563 C 143.755 71.153,143.693 70.767,144.453 69.727 C 145.481 68.323,146.167 67.987,147.063 68.451 C 148.047 68.959,148.401 68.155,147.504 67.450 C 146.432 66.606,144.930 67.217,143.831 68.943 C 142.931 70.355,142.562 70.338,142.485 68.882 C 142.412 67.480,142.857 66.535,143.801 66.091 C 145.029 65.512,144.287 64.687,143.013 65.215 C 142.085 65.599,141.660 66.684,141.667 68.652 C 141.672 70.109,141.625 70.390,141.368 70.451 C 141.110 70.512,138.825 70.487,138.054 70.415 C 137.924 70.403,137.567 69.873,137.261 69.238 C 134.473 63.452,130.650 60.650,127.113 61.800 M126.374 63.600 C 127.115 63.954,128.061 64.640,128.843 65.390 C 130.537 67.014,131.292 68.076,133.384 71.778 C 133.833 72.573,135.058 75.556,135.058 75.855 C 135.058 76.932,128.774 77.458,126.744 76.552 C 124.956 75.753,124.926 75.063,126.660 74.641 C 128.742 74.136,130.601 73.011,130.395 72.382 C 130.308 72.116,129.330 71.944,129.330 72.194 C 129.330 72.840,126.191 73.718,123.884 73.718 C 121.313 73.718,120.092 72.925,120.092 71.254 C 120.092 70.135,120.480 69.892,123.233 69.277 C 127.076 68.420,127.270 68.325,126.697 67.574 C 126.484 67.294,126.352 67.300,124.988 67.642 C 121.179 68.600,118.788 68.890,117.521 68.549 C 115.034 67.880,116.480 65.798,120.924 63.650 C 122.957 62.667,124.395 62.654,126.374 63.600 M154.872 84.018 L 154.919 97.460 156.212 97.460 L 157.506 97.460 157.598 95.516 L 157.691 93.573 159.076 91.789 C 160.708 89.689,160.844 89.604,161.469 90.292 C 161.963 90.835,164.377 93.717,165.631 95.261 C 167.396 97.433,167.571 97.552,169.020 97.552 C 170.910 97.552,171.058 97.871,166.930 93.025 C 161.762 86.958,162.172 87.957,163.934 85.721 C 164.057 85.566,164.655 84.776,165.263 83.966 C 165.871 83.157,166.412 82.453,166.465 82.402 C 166.518 82.351,166.806 81.977,167.104 81.570 C 167.403 81.164,167.698 80.790,167.759 80.739 C 167.820 80.688,168.070 80.356,168.314 80.000 C 168.558 79.644,168.804 79.312,168.861 79.261 C 168.917 79.210,169.195 78.857,169.479 78.476 L 169.996 77.783 168.428 77.783 C 166.870 77.783,166.859 77.786,166.441 78.383 C 166.210 78.714,165.560 79.564,164.997 80.273 C 164.433 80.982,163.873 81.689,163.753 81.843 C 161.889 84.231,158.942 87.995,158.558 88.479 C 158.284 88.824,158.007 89.188,157.942 89.288 C 157.478 90.006,157.413 88.865,157.413 79.897 L 157.413 70.577 156.119 70.577 L 154.824 70.577 154.872 84.018 M172.974 72.841 L 173.025 75.104 174.180 75.159 L 175.335 75.214 175.335 72.896 L 175.335 70.577 174.128 70.577 L 172.922 70.577 172.974 72.841 M217.826 75.427 C 217.823 81.017,217.824 81.014,216.704 80.079 C 214.490 78.229,212.393 77.417,209.828 77.414 C 203.762 77.409,198.949 82.969,199.752 89.053 C 199.866 89.917,200.031 90.703,200.118 90.799 C 200.206 90.896,200.276 91.103,200.274 91.261 C 200.262 92.449,203.053 95.816,204.840 96.768 C 209.139 99.059,214.236 98.252,217.384 94.781 C 218.372 93.691,218.580 93.391,219.090 92.314 C 220.062 90.261,220.046 90.467,220.046 80.218 L 220.046 70.577 218.938 70.577 L 217.829 70.577 217.826 75.427 M256.751 70.701 C 256.597 70.855,256.588 74.507,256.740 74.904 C 256.825 75.125,257.119 75.196,257.941 75.196 L 259.030 75.196 259.030 72.887 L 259.030 70.577 257.952 70.577 C 257.360 70.577,256.819 70.633,256.751 70.701 M142.941 72.586 C 146.664 73.882,149.515 76.860,150.568 80.554 C 150.699 81.012,150.879 81.627,150.968 81.921 C 151.058 82.216,151.132 83.347,151.132 84.434 C 151.132 85.522,151.058 86.652,150.968 86.947 C 150.879 87.242,150.699 87.857,150.568 88.314 C 149.898 90.663,147.831 93.593,146.051 94.718 C 145.594 95.006,145.220 95.299,145.220 95.368 C 145.220 95.436,144.533 95.765,143.695 96.099 L 142.171 96.704 138.383 96.712 L 134.596 96.721 134.460 95.335 C 134.107 91.715,131.930 88.061,128.679 85.630 C 127.473 84.728,127.410 84.643,127.621 84.191 C 127.725 83.969,127.912 83.413,128.037 82.956 C 128.345 81.829,128.480 81.419,129.048 79.876 L 129.536 78.551 130.773 78.455 C 132.567 78.316,133.647 78.138,133.848 77.949 C 133.944 77.858,134.194 77.782,134.402 77.780 C 136.640 77.764,136.960 76.670,135.572 73.777 C 134.830 72.231,139.673 71.448,142.941 72.586 M142.866 75.550 C 140.465 76.164,139.169 79.508,140.402 81.911 C 142.612 86.220,148.176 84.736,148.176 79.836 C 148.176 76.791,145.731 74.818,142.866 75.550 M145.462 76.705 C 146.549 77.283,146.453 77.782,145.255 77.786 C 144.778 77.787,144.476 77.850,144.583 77.924 C 146.018 78.921,145.482 81.293,143.821 81.293 C 142.864 81.293,142.800 81.484,143.408 82.514 L 143.814 83.202 143.186 83.076 C 140.723 82.583,140.220 78.410,142.443 76.905 C 143.134 76.437,144.758 76.329,145.462 76.705 M186.882 76.982 C 182.554 77.748,180.337 79.467,179.053 83.048 C 178.649 84.177,178.476 86.873,178.476 92.047 L 178.476 97.360 178.906 97.468 C 179.143 97.528,179.704 97.550,180.153 97.518 L 180.970 97.460 181.062 90.901 C 181.113 87.293,181.225 84.176,181.310 83.972 C 183.918 77.784,191.668 77.959,193.548 84.249 C 193.623 84.503,193.734 87.580,193.794 91.085 L 193.903 97.460 195.012 97.460 L 196.120 97.460 196.175 91.363 C 196.249 83.226,195.967 81.964,193.529 79.526 C 191.864 77.862,188.718 76.657,186.882 76.982 M231.594 77.212 C 224.819 78.918,221.420 86.044,224.445 92.194 C 228.281 99.991,239.415 99.974,243.015 92.166 C 243.442 91.239,243.475 91.270,242.050 91.270 L 240.774 91.270 240.302 92.055 C 237.689 96.402,231.897 96.980,228.126 93.272 C 226.879 92.045,226.076 90.477,226.061 89.238 L 226.051 88.406 234.978 88.358 L 243.906 88.311 243.829 86.696 C 243.597 81.835,240.307 78.215,235.144 77.138 C 233.508 76.796,233.220 76.802,231.594 77.212 M270.485 76.996 C 267.391 77.322,265.164 78.615,263.634 80.974 C 262.307 83.019,262.263 83.331,262.263 90.808 L 262.263 97.460 263.418 97.515 L 264.573 97.570 264.575 91.418 C 264.577 86.733,264.639 85.034,264.836 84.293 C 266.392 78.447,273.931 77.716,276.708 83.141 L 277.229 84.157 277.321 90.808 L 277.413 97.460 278.522 97.460 L 279.630 97.460 279.620 90.716 C 279.608 83.465,279.605 83.436,278.762 81.720 C 277.340 78.824,273.567 76.670,270.485 76.996 M252.656 77.627 C 251.424 78.036,250.457 78.642,249.707 79.477 C 248.767 80.522,248.684 80.479,248.684 78.953 L 248.684 77.783 247.575 77.783 L 246.467 77.783 246.467 87.667 L 246.467 97.552 247.468 97.552 C 249.199 97.552,249.053 98.176,249.053 90.764 C 249.053 86.194,249.120 83.975,249.275 83.460 C 249.732 81.932,251.958 80.084,253.487 79.960 L 254.134 79.908 254.189 78.661 L 254.243 77.413 253.727 77.428 C 253.443 77.436,252.961 77.525,252.656 77.627 M172.933 87.572 L 172.933 97.360 173.366 97.469 C 173.605 97.529,174.124 97.551,174.521 97.519 L 175.242 97.460 175.290 87.621 L 175.338 77.783 174.136 77.783 L 172.933 77.783 172.933 87.572 M256.673 87.621 L 256.721 97.460 257.829 97.460 L 258.938 97.460 258.985 87.621 L 259.033 77.783 257.829 77.783 L 256.625 77.783 256.673 87.621 M236.028 79.848 C 238.708 80.766,241.124 83.317,241.332 85.450 L 241.386 86.005 233.672 86.053 L 225.958 86.101 225.958 85.660 C 225.958 84.339,228.477 80.764,229.423 80.744 C 229.550 80.741,229.654 80.674,229.654 80.594 C 229.654 79.798,234.294 79.255,236.028 79.848 M212.471 80.243 C 216.692 81.615,218.846 87.051,216.813 91.202 C 213.120 98.745,202.125 96.087,202.125 87.652 C 202.125 82.354,207.384 78.588,212.471 80.243 M126.806 92.738 C 127.631 93.502,128.530 95.165,128.703 96.245 L 128.823 96.998 126.501 96.998 C 123.752 96.998,123.862 97.103,124.452 95.038 C 124.710 94.134,124.989 93.145,125.072 92.841 C 125.452 91.444,125.411 91.447,126.806 92.738 " stroke="none" fill="#5c532e" fill-rule="evenodd"></path><path id="path1" d="M0.000 92.379 L 0.000 184.758 200.000 184.758 L 400.000 184.758 400.000 92.379 L 400.000 0.000 200.000 0.000 L 0.000 0.000 0.000 92.379 M130.802 61.466 C 133.151 62.339,135.307 64.691,137.307 68.564 L 138.061 70.023 139.608 70.023 L 141.155 70.023 141.155 68.763 C 141.155 66.024,142.576 64.212,144.294 64.757 C 145.073 65.004,144.958 66.278,144.142 66.442 C 143.138 66.644,142.638 67.790,142.987 69.094 C 143.108 69.547,143.110 69.546,143.358 68.949 C 144.325 66.613,148.545 65.955,148.545 68.140 C 148.545 68.890,147.517 69.364,147.067 68.822 C 146.549 68.198,145.183 69.004,144.502 70.334 C 144.192 70.940,144.237 71.036,144.955 71.296 C 146.326 71.792,149.999 74.778,150.019 75.414 C 150.021 75.483,150.127 75.652,150.254 75.789 C 153.369 79.158,153.782 87.695,151.032 91.867 C 150.782 92.246,150.577 92.602,150.577 92.660 C 150.577 93.938,145.517 97.750,143.165 98.244 C 140.582 98.787,139.372 98.845,130.741 98.845 L 121.755 98.845 121.755 98.117 C 121.755 97.717,121.838 97.338,121.940 97.275 C 122.042 97.212,122.125 96.998,122.125 96.800 C 122.125 96.601,122.200 96.294,122.291 96.118 C 122.383 95.941,122.548 95.464,122.658 95.058 C 122.768 94.651,123.026 93.785,123.231 93.133 C 123.435 92.482,123.603 91.859,123.603 91.750 C 123.603 91.479,124.887 87.375,125.097 86.977 C 125.190 86.801,125.266 86.516,125.266 86.344 C 125.266 86.172,125.345 85.776,125.441 85.463 C 125.538 85.151,125.912 83.958,126.273 82.812 C 126.633 81.666,126.928 80.581,126.928 80.401 C 126.928 80.221,127.006 79.995,127.101 79.898 C 127.476 79.517,127.417 78.262,127.021 78.196 C 126.007 78.025,124.680 77.095,124.070 76.128 C 123.782 75.672,123.445 75.390,123.107 75.323 C 121.725 75.047,121.423 74.956,120.697 74.601 C 119.359 73.946,118.822 72.974,118.807 71.178 L 118.799 70.208 117.958 70.208 C 116.714 70.208,115.844 69.650,115.150 68.409 C 113.593 65.623,119.817 61.142,124.896 61.392 C 125.963 61.445,127.044 61.421,127.298 61.340 C 128.115 61.078,129.933 61.143,130.802 61.466 M157.783 79.679 L 157.875 88.874 158.829 87.624 C 159.353 86.937,159.935 86.198,160.122 85.983 C 160.309 85.768,160.670 85.320,160.924 84.987 C 161.998 83.581,164.300 80.618,164.586 80.273 C 164.757 80.068,165.144 79.569,165.447 79.165 C 166.673 77.529,166.542 77.598,168.429 77.598 C 170.598 77.598,170.585 77.527,168.842 79.819 C 168.032 80.884,167.187 81.997,166.964 82.292 C 166.075 83.471,164.361 85.641,164.250 85.727 C 164.067 85.871,162.956 87.535,162.956 87.665 C 162.956 87.806,163.940 89.076,164.742 89.971 C 165.064 90.330,165.520 90.873,165.755 91.178 C 165.989 91.483,166.266 91.823,166.370 91.935 C 166.536 92.113,167.594 93.336,168.619 94.533 C 168.807 94.753,169.224 95.251,169.545 95.642 C 169.867 96.032,170.310 96.542,170.531 96.776 C 171.247 97.534,170.924 97.737,169.006 97.737 L 167.285 97.737 166.645 96.958 C 165.485 95.547,163.690 93.403,163.273 92.931 C 163.048 92.676,162.531 92.052,162.125 91.545 C 161.067 90.227,160.919 90.091,160.748 90.275 C 160.359 90.692,159.122 92.188,158.707 92.744 C 158.453 93.083,158.144 93.464,158.021 93.589 C 157.882 93.730,157.776 94.546,157.743 95.731 L 157.691 97.644 156.334 97.699 C 155.493 97.733,154.879 97.672,154.717 97.538 C 154.437 97.305,154.309 70.787,154.587 70.509 C 154.659 70.437,155.386 70.403,156.204 70.432 L 157.691 70.485 157.783 79.679 M175.612 72.887 L 175.612 75.289 174.243 75.344 C 172.538 75.412,172.570 75.461,172.566 72.779 C 172.563 70.237,172.473 70.365,174.218 70.432 L 175.612 70.485 175.612 72.887 M220.507 79.446 C 220.505 87.713,220.394 90.514,220.046 90.993 C 219.973 91.095,219.862 91.389,219.801 91.648 C 219.469 93.041,217.047 95.836,215.210 96.945 C 214.306 97.490,213.741 97.717,211.904 98.275 C 210.726 98.633,207.118 98.357,206.633 97.872 C 206.558 97.798,206.350 97.737,206.169 97.737 C 205.135 97.737,202.271 95.435,201.080 93.647 C 199.771 91.682,199.474 90.595,199.474 87.760 C 199.474 84.834,199.781 83.759,201.188 81.755 C 202.164 80.364,204.465 78.337,205.068 78.337 C 205.177 78.337,205.266 78.254,205.266 78.152 C 205.266 78.051,205.415 77.968,205.598 77.968 C 205.781 77.968,206.010 77.899,206.106 77.815 C 207.122 76.932,211.934 76.923,213.623 77.801 C 213.800 77.893,214.070 77.968,214.224 77.968 C 214.378 77.968,214.503 78.031,214.503 78.107 C 214.503 78.184,214.739 78.351,215.026 78.478 C 215.314 78.606,215.888 79.000,216.303 79.355 C 216.717 79.710,217.106 80.000,217.166 80.000 C 217.226 80.000,217.275 77.894,217.275 75.319 C 217.275 69.924,217.118 70.364,219.021 70.432 L 220.508 70.485 220.507 79.446 M259.215 72.895 L 259.215 75.397 257.783 75.343 L 256.351 75.289 256.299 73.082 C 256.231 70.246,256.149 70.393,257.823 70.393 L 259.215 70.393 259.215 72.895 M190.115 77.059 C 193.224 78.168,194.957 79.915,196.147 83.141 C 196.406 83.842,196.467 85.035,196.538 90.754 L 196.622 97.535 196.179 97.646 C 195.935 97.707,195.240 97.732,194.634 97.701 L 193.533 97.644 193.438 90.993 C 193.326 83.240,193.323 83.223,191.316 81.263 C 189.197 79.193,185.522 79.289,183.238 81.475 C 182.758 81.934,182.363 82.380,182.360 82.466 C 182.358 82.552,182.200 82.843,182.010 83.112 C 181.473 83.873,181.405 84.639,181.275 91.363 L 181.155 97.644 179.769 97.644 L 178.383 97.644 178.390 90.808 C 178.397 83.594,178.416 83.409,179.315 81.571 C 181.135 77.852,186.296 75.695,190.115 77.059 M236.632 77.113 C 237.560 77.450,238.760 77.998,238.891 78.143 C 238.942 78.199,239.225 78.370,239.520 78.522 C 240.837 79.203,243.695 82.914,243.695 83.945 C 243.695 84.173,243.774 84.439,243.871 84.536 C 243.967 84.632,244.071 85.584,244.102 86.651 L 244.157 88.591 235.296 88.639 C 230.423 88.666,226.369 88.754,226.287 88.835 C 226.086 89.037,226.784 91.011,227.370 91.896 C 229.767 95.520,234.411 96.416,238.237 93.993 C 238.811 93.630,238.967 93.457,239.688 92.379 C 240.716 90.843,240.620 90.901,242.138 90.901 C 243.857 90.901,243.924 91.022,243.109 92.679 C 241.873 95.195,238.962 97.515,236.233 98.160 C 235.111 98.426,232.271 98.530,231.711 98.326 C 231.443 98.229,230.850 98.041,230.393 97.909 C 227.533 97.081,224.673 94.095,223.359 90.563 C 222.936 89.427,223.054 85.460,223.551 84.065 C 224.290 81.989,227.173 78.337,228.072 78.337 C 228.213 78.337,228.357 78.275,228.391 78.199 C 228.501 77.950,230.532 77.055,231.594 76.786 C 232.330 76.600,235.850 76.828,236.632 77.113 M273.171 76.954 C 274.143 77.201,275.769 77.883,276.028 78.151 C 276.079 78.204,276.423 78.472,276.793 78.748 C 277.831 79.521,279.538 82.004,279.538 82.740 C 279.538 82.920,279.642 83.171,279.769 83.298 C 279.946 83.475,280.000 85.187,280.000 90.587 L 280.000 97.644 278.522 97.644 L 277.044 97.644 276.995 91.000 C 276.966 86.942,276.876 84.285,276.764 84.173 C 276.664 84.073,276.582 83.861,276.582 83.702 C 276.582 82.725,274.442 80.587,272.940 80.064 C 271.676 79.624,268.268 79.880,268.268 80.414 C 268.268 80.491,268.150 80.554,268.005 80.554 C 267.592 80.554,266.198 82.055,265.589 83.156 L 265.035 84.157 264.942 90.901 L 264.850 97.644 263.372 97.644 L 261.894 97.644 261.905 90.993 C 261.911 87.138,261.994 84.029,262.103 83.598 C 262.646 81.447,264.447 78.938,266.033 78.123 C 266.297 77.987,266.554 77.824,266.605 77.762 C 266.705 77.637,268.685 76.924,269.284 76.796 C 270.143 76.613,272.149 76.694,273.171 76.954 M142.951 77.129 C 141.135 78.077,140.796 80.922,142.347 82.210 C 142.698 82.501,142.982 82.308,142.667 81.992 C 142.407 81.732,142.376 80.990,142.620 80.839 C 142.715 80.781,142.844 80.817,142.908 80.921 C 143.149 81.311,144.149 81.122,144.597 80.600 C 145.266 79.823,145.120 78.825,144.235 78.122 C 143.850 77.817,143.852 77.812,144.534 77.487 C 145.006 77.262,145.149 77.113,144.989 77.012 C 144.617 76.775,143.507 76.839,142.951 77.129 M254.374 77.266 C 254.968 77.859,254.587 80.185,253.896 80.185 C 252.788 80.185,251.877 80.685,250.586 82.001 C 249.378 83.232,249.357 83.376,249.245 90.901 L 249.145 97.644 247.667 97.644 L 246.189 97.644 246.189 87.667 L 246.189 77.691 247.529 77.636 L 248.868 77.582 248.883 78.837 C 248.891 79.528,248.945 79.968,249.003 79.815 C 249.106 79.544,249.750 78.890,250.458 78.337 C 251.220 77.743,252.590 77.247,253.958 77.069 C 254.065 77.055,254.252 77.144,254.374 77.266 M175.612 87.667 L 175.612 97.644 174.243 97.699 C 173.272 97.738,172.829 97.684,172.721 97.514 C 172.536 97.223,172.510 77.898,172.694 77.714 C 172.765 77.643,173.451 77.608,174.218 77.637 L 175.612 77.691 175.612 87.667 M259.215 87.667 L 259.215 97.737 258.029 97.737 C 257.377 97.737,256.712 97.686,256.551 97.625 C 256.246 97.508,256.081 78.023,256.382 77.721 C 256.450 77.654,257.115 77.598,257.860 77.598 L 259.215 77.598 259.215 87.667 M231.963 79.989 C 231.760 80.070,231.261 80.242,230.855 80.372 C 228.917 80.988,226.143 84.206,226.143 85.838 C 226.143 85.879,229.510 85.912,233.626 85.912 L 241.109 85.912 241.109 85.461 C 241.109 85.213,241.025 84.959,240.924 84.896 C 240.822 84.833,240.739 84.651,240.739 84.492 C 240.739 84.007,238.669 81.293,238.299 81.293 C 238.210 81.293,237.958 81.127,237.740 80.924 C 237.522 80.721,237.207 80.554,237.040 80.554 C 236.873 80.554,236.676 80.495,236.604 80.422 C 236.130 79.948,232.832 79.640,231.963 79.989 M207.760 80.411 C 207.455 80.514,207.039 80.686,206.836 80.795 C 206.633 80.903,206.254 81.099,205.993 81.231 C 205.001 81.733,203.506 83.548,202.899 84.988 C 201.983 87.162,202.506 90.762,203.965 92.328 C 204.172 92.551,204.342 92.784,204.342 92.846 C 204.342 93.023,204.730 93.362,205.667 94.003 C 212.716 98.826,220.867 89.930,215.704 83.049 C 214.759 81.789,213.071 80.554,212.292 80.554 C 212.098 80.554,211.887 80.471,211.824 80.370 C 211.678 80.132,208.492 80.164,207.760 80.411 " stroke="none" fill="#fbfbfb" fill-rule="evenodd"></path><path id="path2" d="M128.961 61.344 C 129.723 61.415,130.554 61.530,130.808 61.601 C 131.081 61.677,131.016 61.612,130.649 61.442 C 130.254 61.260,129.580 61.166,128.801 61.185 L 127.575 61.216 128.961 61.344 M121.516 61.787 C 118.522 62.851,116.117 64.544,115.273 66.182 C 114.904 66.897,114.798 68.079,115.086 68.257 C 115.181 68.315,115.212 68.053,115.159 67.653 C 114.926 65.919,116.944 63.945,120.535 62.397 L 122.178 61.689 124.507 61.740 C 125.788 61.768,126.975 61.710,127.144 61.611 C 127.925 61.157,122.843 61.316,121.516 61.787 M131.363 61.782 C 131.363 61.822,131.780 62.123,132.290 62.450 C 132.800 62.778,133.641 63.514,134.159 64.086 C 134.677 64.659,134.931 64.878,134.724 64.573 C 133.956 63.438,131.363 61.286,131.363 61.782 M121.155 63.805 C 115.805 66.184,114.975 68.488,119.536 68.300 C 121.892 68.203,122.410 68.123,124.958 67.465 C 126.723 67.009,127.090 67.137,127.111 68.217 C 127.116 68.503,125.994 68.892,123.510 69.465 C 120.285 70.210,119.591 70.990,120.762 72.552 C 121.836 73.986,127.084 73.770,129.023 72.212 C 129.663 71.698,129.778 71.665,130.178 71.880 C 131.646 72.665,129.030 74.533,125.727 75.058 C 125.389 75.112,125.406 75.166,125.928 75.695 C 127.095 76.877,130.352 77.231,133.155 76.480 C 135.170 75.940,135.091 76.056,134.428 74.601 C 134.183 74.065,133.778 73.161,133.528 72.593 C 130.308 65.295,125.495 61.876,121.155 63.805 M142.209 65.324 C 141.549 65.984,141.155 67.276,141.155 68.776 L 141.155 70.049 139.500 69.990 C 138.590 69.957,137.904 69.988,137.976 70.058 C 138.048 70.127,138.813 70.203,139.677 70.225 L 141.247 70.266 141.358 68.620 C 141.485 66.728,141.811 65.818,142.564 65.257 C 142.856 65.040,143.002 64.859,142.889 64.856 C 142.776 64.853,142.470 65.063,142.209 65.324 M135.242 65.368 C 135.242 65.478,135.318 65.614,135.411 65.671 C 135.503 65.728,135.975 66.481,136.459 67.343 C 136.943 68.206,137.369 68.882,137.405 68.846 C 137.487 68.764,136.047 66.203,135.586 65.610 C 135.397 65.368,135.242 65.259,135.242 65.368 M144.634 65.600 C 144.600 65.827,144.448 66.074,144.296 66.149 C 144.143 66.224,143.790 66.392,143.511 66.522 C 143.231 66.653,143.042 66.799,143.091 66.847 C 143.139 66.895,143.284 66.851,143.414 66.749 C 143.543 66.647,143.876 66.509,144.154 66.443 C 144.628 66.330,145.059 65.552,144.795 65.287 C 144.740 65.233,144.667 65.373,144.634 65.600 M146.099 66.828 C 146.329 66.872,146.662 66.871,146.838 66.824 C 147.015 66.778,146.827 66.742,146.420 66.744 C 146.014 66.746,145.869 66.784,146.099 66.828 M147.786 67.418 C 148.426 68.016,148.439 68.053,148.169 68.557 C 147.951 68.965,147.447 69.023,147.067 68.684 C 146.846 68.487,146.844 68.501,147.052 68.776 C 147.499 69.367,148.545 68.921,148.545 68.140 C 148.545 67.828,147.677 66.882,147.392 66.882 C 147.293 66.882,147.471 67.123,147.786 67.418 M142.749 67.667 C 142.520 68.523,142.668 69.654,143.009 69.654 C 143.093 69.654,143.089 69.403,143.001 69.096 C 142.914 68.790,142.889 68.250,142.946 67.896 C 143.062 67.180,142.923 67.018,142.749 67.667 M144.169 67.852 C 143.857 68.182,143.505 68.661,143.389 68.915 L 143.176 69.376 143.505 68.919 C 143.686 68.667,144.071 68.189,144.361 67.857 C 145.042 67.075,144.907 67.072,144.169 67.852 M115.289 68.654 C 115.289 69.296,116.849 70.208,117.946 70.208 L 118.781 70.208 118.847 71.270 L 118.914 72.333 118.949 71.178 L 118.984 70.023 118.199 70.019 C 117.243 70.014,115.999 69.477,115.590 68.893 C 115.424 68.657,115.289 68.549,115.289 68.654 M145.209 69.238 L 144.573 69.931 145.266 69.294 C 145.910 68.701,146.043 68.545,145.902 68.545 C 145.871 68.545,145.560 68.857,145.209 69.238 M144.290 70.403 C 144.178 70.612,144.114 70.865,144.148 70.965 C 144.181 71.066,144.304 70.895,144.421 70.585 C 144.664 69.942,144.591 69.841,144.290 70.403 M154.580 70.516 C 154.307 70.789,154.441 97.309,154.717 97.538 C 154.879 97.672,155.493 97.733,156.334 97.699 L 157.691 97.644 157.701 95.889 L 157.711 94.134 157.648 95.851 L 157.585 97.567 156.159 97.513 L 154.734 97.460 154.734 83.926 C 154.734 76.483,154.727 70.393,154.719 70.393 C 154.711 70.393,154.648 70.448,154.580 70.516 M157.555 79.732 C 157.583 84.859,157.671 89.053,157.751 89.053 C 157.831 89.053,158.452 88.346,159.131 87.483 C 159.810 86.619,160.304 85.916,160.229 85.920 C 160.154 85.924,159.594 86.590,158.984 87.401 L 157.875 88.875 157.827 79.780 C 157.801 74.777,157.718 70.623,157.643 70.548 C 157.567 70.473,157.528 74.605,157.555 79.732 M172.644 70.635 C 172.593 70.768,172.575 71.828,172.604 72.991 L 172.658 75.104 172.749 72.748 C 172.839 70.423,172.826 70.159,172.644 70.635 M175.484 72.795 L 175.540 75.180 174.190 75.246 L 172.841 75.312 174.226 75.300 L 175.612 75.289 175.664 72.994 C 175.693 71.733,175.651 70.635,175.572 70.555 C 175.492 70.475,175.453 71.483,175.484 72.795 M217.398 70.516 C 217.330 70.584,217.275 72.745,217.275 75.319 C 217.275 79.858,217.216 80.320,216.713 79.714 C 216.583 79.557,216.219 79.254,215.906 79.041 C 215.592 78.828,215.751 79.036,216.259 79.503 C 217.689 80.819,217.626 81.000,217.685 75.381 C 217.713 72.637,217.688 70.392,217.629 70.392 C 217.570 70.393,217.466 70.448,217.398 70.516 M220.205 79.861 C 220.248 86.025,220.330 89.081,220.438 88.615 C 220.669 87.619,220.562 70.534,220.323 70.454 C 220.201 70.413,220.161 73.601,220.205 79.861 M256.339 70.634 C 256.288 70.767,256.270 71.869,256.299 73.082 L 256.351 75.289 257.737 75.300 L 259.122 75.312 257.783 75.246 L 256.443 75.181 256.443 72.894 C 256.443 71.238,256.507 70.582,256.674 70.515 C 256.855 70.442,256.854 70.419,256.669 70.407 C 256.538 70.399,256.390 70.501,256.339 70.634 M145.291 71.545 C 145.483 71.673,146.118 72.090,146.702 72.472 C 147.285 72.854,148.322 73.758,149.005 74.482 C 149.688 75.206,150.158 75.642,150.049 75.451 C 149.442 74.382,146.991 72.273,145.589 71.615 C 145.233 71.448,145.099 71.416,145.291 71.545 M137.182 72.466 C 136.878 72.569,136.484 72.727,136.307 72.816 C 136.131 72.906,135.868 72.979,135.724 72.979 C 135.510 72.979,135.525 73.113,135.804 73.689 C 137.033 76.234,137.067 77.169,135.942 77.590 C 135.608 77.715,135.044 77.934,134.688 78.075 C 133.659 78.484,132.472 78.697,131.178 78.705 C 129.570 78.715,129.501 78.784,128.869 81.016 C 128.696 81.626,128.397 82.588,128.203 83.153 C 127.824 84.265,127.761 84.804,128.010 84.804 C 128.097 84.804,128.958 85.573,129.923 86.513 C 132.949 89.459,134.688 92.807,134.688 95.685 L 134.688 96.628 137.968 96.622 C 142.258 96.613,143.532 96.313,145.681 94.809 C 150.534 91.412,152.332 85.088,150.025 79.538 C 148.463 75.781,146.209 73.774,142.065 72.451 C 141.267 72.196,137.954 72.206,137.182 72.466 M118.988 72.665 C 118.972 73.216,120.470 74.880,120.740 74.611 C 120.779 74.571,120.573 74.379,120.282 74.183 C 119.991 73.988,119.581 73.533,119.372 73.172 C 119.163 72.812,118.990 72.584,118.988 72.665 M121.109 74.827 C 121.171 74.928,121.405 75.006,121.628 74.999 C 122.018 74.986,122.019 74.980,121.663 74.827 C 121.154 74.608,120.973 74.608,121.109 74.827 M122.494 75.196 C 122.647 75.295,122.957 75.377,123.185 75.378 C 123.463 75.380,123.748 75.618,124.055 76.105 C 124.491 76.795,125.587 77.783,125.917 77.783 C 126.002 77.783,125.725 77.517,125.302 77.191 C 124.879 76.866,124.364 76.242,124.159 75.806 C 123.805 75.052,123.745 75.012,123.001 75.014 C 122.427 75.016,122.291 75.065,122.494 75.196 M145.391 75.418 C 146.345 75.739,147.194 76.408,147.764 77.290 C 148.336 78.173,148.501 81.145,148.026 81.989 C 147.827 82.342,147.835 82.424,148.075 82.517 C 148.720 82.764,148.368 83.303,147.206 83.849 C 144.456 85.140,140.047 85.383,141.253 84.177 C 141.577 83.854,141.436 83.459,140.745 82.751 C 137.802 79.735,141.389 74.073,145.391 75.418 M143.095 76.797 C 142.115 77.059,141.149 78.631,141.182 79.908 C 141.200 80.623,141.205 80.617,141.338 79.710 C 141.612 77.847,142.598 76.854,144.169 76.862 C 145.155 76.867,145.303 77.120,144.534 77.487 C 143.852 77.812,143.850 77.817,144.235 78.122 C 145.092 78.803,145.273 79.859,144.647 80.532 C 144.433 80.761,144.299 80.989,144.348 81.038 C 144.398 81.088,144.614 80.905,144.829 80.631 C 145.353 79.965,145.323 79.155,144.748 78.400 L 144.276 77.781 144.788 77.586 C 145.070 77.479,145.463 77.434,145.662 77.486 C 146.006 77.576,146.005 77.563,145.637 77.194 C 145.244 76.801,143.876 76.588,143.095 76.797 M186.749 76.810 C 187.183 76.849,187.848 76.848,188.227 76.809 C 188.605 76.769,188.249 76.737,187.436 76.738 C 186.624 76.738,186.314 76.771,186.749 76.810 M232.661 76.810 C 233.147 76.849,233.895 76.848,234.324 76.809 C 234.753 76.771,234.356 76.739,233.441 76.740 C 232.527 76.741,232.176 76.772,232.661 76.810 M270.259 76.810 C 270.693 76.849,271.359 76.848,271.737 76.809 C 272.115 76.769,271.760 76.737,270.947 76.738 C 270.134 76.738,269.824 76.771,270.259 76.810 M235.751 77.044 C 236.382 77.246,236.868 77.246,236.397 77.044 C 236.194 76.957,235.861 76.888,235.658 76.891 C 235.361 76.895,235.379 76.925,235.751 77.044 M151.464 78.144 C 151.731 78.748,151.982 79.211,152.022 79.172 C 152.108 79.086,151.190 77.044,151.065 77.044 C 151.017 77.044,151.197 77.539,151.464 78.144 M209.379 77.176 C 209.660 77.219,210.076 77.218,210.303 77.174 C 210.530 77.130,210.300 77.095,209.792 77.097 C 209.284 77.098,209.098 77.134,209.379 77.176 M183.418 77.519 C 182.702 77.908,182.783 78.042,183.510 77.672 C 184.207 77.318,184.330 77.226,184.095 77.236 C 184.002 77.240,183.697 77.367,183.418 77.519 M207.113 77.413 C 206.746 77.651,207.207 77.651,207.760 77.413 L 208.129 77.255 207.760 77.244 C 207.557 77.239,207.266 77.315,207.113 77.413 M211.563 77.295 C 211.605 77.332,211.889 77.417,212.194 77.485 C 212.599 77.576,212.674 77.559,212.471 77.422 C 212.222 77.253,211.377 77.135,211.563 77.295 M254.472 78.614 C 254.473 79.326,254.506 79.594,254.546 79.211 C 254.586 78.827,254.585 78.245,254.544 77.917 C 254.504 77.589,254.471 77.903,254.472 78.614 M172.648 77.829 C 172.600 77.956,172.581 82.425,172.608 87.760 L 172.656 97.460 172.748 87.529 C 172.799 82.067,172.817 77.598,172.789 77.598 C 172.760 77.598,172.697 77.702,172.648 77.829 M246.182 77.829 C 246.133 77.956,246.115 82.467,246.141 87.852 L 246.189 97.644 247.557 97.699 C 248.309 97.729,248.992 97.688,249.073 97.607 C 249.155 97.526,248.558 97.487,247.748 97.520 L 246.275 97.580 246.325 87.589 C 246.352 82.094,246.351 77.598,246.322 77.598 C 246.294 77.598,246.230 77.702,246.182 77.829 M256.382 77.721 C 256.081 78.023,256.246 97.508,256.551 97.625 C 256.712 97.686,257.398 97.722,258.075 97.703 L 259.307 97.670 257.921 97.565 L 256.536 97.460 256.536 87.529 C 256.536 82.067,256.529 77.598,256.520 77.598 C 256.512 77.598,256.450 77.654,256.382 77.721 M175.564 87.613 L 175.520 97.536 174.088 97.599 L 172.656 97.662 174.094 97.700 C 175.102 97.726,175.558 97.668,175.620 97.506 C 175.668 97.379,175.686 92.868,175.658 87.483 L 175.609 77.691 175.564 87.613 M181.911 78.430 C 181.616 78.684,181.438 78.891,181.515 78.891 C 181.592 78.891,181.903 78.684,182.205 78.430 C 182.507 78.176,182.685 77.968,182.601 77.968 C 182.517 77.968,182.206 78.176,181.911 78.430 M127.356 78.819 C 127.316 79.588,127.424 79.557,127.660 78.732 C 127.780 78.316,127.765 78.153,127.608 78.153 C 127.488 78.154,127.375 78.451,127.356 78.819 M165.485 79.080 C 164.813 80.029,164.941 80.027,165.705 79.076 C 166.032 78.670,166.233 78.339,166.152 78.341 C 166.071 78.343,165.771 78.676,165.485 79.080 M192.978 78.678 C 193.180 78.916,193.512 79.196,193.716 79.301 C 194.109 79.502,194.051 79.440,193.165 78.704 C 192.632 78.261,192.625 78.260,192.978 78.678 M239.451 78.642 C 239.702 78.810,240.162 79.163,240.473 79.427 C 240.783 79.692,240.672 79.554,240.224 79.122 C 239.776 78.691,239.316 78.337,239.202 78.337 C 239.088 78.337,239.200 78.474,239.451 78.642 M265.071 78.805 C 264.785 79.056,264.625 79.261,264.715 79.261 C 264.805 79.261,265.073 79.053,265.312 78.799 C 265.864 78.211,265.742 78.214,265.071 78.805 M276.212 78.378 C 276.212 78.414,276.607 78.768,277.090 79.165 C 277.573 79.562,277.801 79.695,277.598 79.461 C 277.239 79.048,276.212 78.246,276.212 78.378 M226.409 79.677 L 225.866 80.277 226.467 79.734 C 227.026 79.229,227.152 79.076,227.009 79.076 C 226.977 79.076,226.707 79.346,226.409 79.677 M168.499 80.046 C 167.730 81.026,167.531 81.369,168.093 80.748 C 168.627 80.156,169.287 79.261,169.189 79.261 C 169.148 79.261,168.838 79.614,168.499 80.046 M152.081 79.630 C 152.081 79.783,152.153 80.074,152.240 80.277 C 152.340 80.510,152.399 80.544,152.399 80.370 C 152.399 80.217,152.328 79.926,152.240 79.723 C 152.140 79.490,152.081 79.456,152.081 79.630 M185.404 79.932 C 184.963 80.148,184.944 80.176,185.312 80.074 C 185.566 80.003,186.480 79.889,187.344 79.820 L 188.915 79.694 187.436 79.677 C 186.481 79.666,185.762 79.756,185.404 79.932 M232.933 79.764 C 233.263 79.805,233.804 79.805,234.134 79.764 C 234.464 79.723,234.194 79.690,233.533 79.690 C 232.873 79.690,232.603 79.723,232.933 79.764 M271.039 79.820 C 271.903 79.889,272.818 80.004,273.072 80.075 C 273.340 80.151,273.273 80.085,272.912 79.918 C 272.495 79.725,271.825 79.641,270.879 79.662 L 269.469 79.694 271.039 79.820 M189.640 80.178 C 190.040 80.385,190.411 80.554,190.467 80.554 C 190.695 80.554,189.803 80.040,189.376 79.926 C 189.111 79.855,189.223 79.962,189.640 80.178 M231.402 79.987 C 231.094 80.061,230.678 80.225,230.479 80.352 C 230.120 80.579,230.120 80.580,230.485 80.455 C 230.688 80.384,231.131 80.261,231.470 80.180 C 231.808 80.099,232.134 79.983,232.193 79.924 C 232.323 79.794,232.151 79.808,231.402 79.987 M235.289 80.000 C 235.492 80.087,235.824 80.156,236.028 80.153 C 236.325 80.149,236.307 80.119,235.935 80.000 C 235.304 79.798,234.818 79.798,235.289 80.000 M164.105 80.852 C 163.772 81.298,163.536 81.663,163.581 81.663 C 163.712 81.663,164.856 80.175,164.780 80.104 C 164.742 80.069,164.438 80.406,164.105 80.852 M202.217 80.445 C 201.464 81.250,201.340 81.548,202.035 80.884 C 202.430 80.506,202.715 80.164,202.670 80.123 C 202.624 80.083,202.420 80.227,202.217 80.445 M209.192 80.135 C 209.573 80.174,210.196 80.174,210.577 80.135 C 210.958 80.095,210.647 80.062,209.885 80.062 C 209.122 80.062,208.811 80.095,209.192 80.135 M191.080 81.022 C 191.356 81.313,191.615 81.514,191.656 81.468 C 191.696 81.423,191.470 81.185,191.153 80.940 L 190.577 80.494 191.080 81.022 M141.348 80.937 C 141.337 81.327,142.590 82.771,142.940 82.771 C 143.093 82.771,143.180 82.667,143.133 82.540 C 143.087 82.413,142.946 82.333,142.821 82.362 C 142.497 82.437,142.108 82.069,141.705 81.306 C 141.513 80.944,141.352 80.777,141.348 80.937 M142.566 80.867 C 142.372 81.061,142.432 81.816,142.653 81.952 C 142.792 82.038,142.815 81.946,142.725 81.663 C 142.644 81.406,142.679 81.194,142.818 81.109 C 142.952 81.025,142.970 80.926,142.863 80.860 C 142.765 80.799,142.631 80.802,142.566 80.867 M152.574 81.663 C 152.644 82.222,152.700 83.677,152.696 84.896 C 152.693 86.115,152.746 86.864,152.813 86.559 C 153.028 85.584,152.970 83.087,152.704 81.848 C 152.452 80.676,152.449 80.671,152.574 81.663 M183.175 81.339 L 182.633 81.940 183.279 81.386 C 183.634 81.081,183.959 80.811,184.002 80.785 C 184.045 80.760,183.999 80.739,183.899 80.739 C 183.800 80.739,183.474 81.009,183.175 81.339 M262.901 81.496 C 262.688 81.912,262.546 82.285,262.585 82.323 C 262.624 82.362,262.836 82.021,263.057 81.566 C 263.561 80.530,263.425 80.469,262.901 81.496 M242.241 81.400 C 242.407 81.595,242.683 82.033,242.855 82.373 C 243.027 82.713,243.210 82.949,243.260 82.898 C 243.380 82.779,242.488 81.366,242.178 81.185 C 242.047 81.108,242.075 81.205,242.241 81.400 M204.623 82.213 C 204.125 82.719,203.754 83.159,203.799 83.191 C 203.843 83.223,204.287 82.809,204.785 82.271 C 205.930 81.035,205.822 80.996,204.623 82.213 M227.905 82.249 C 227.125 83.117,226.400 84.383,226.580 84.563 C 226.619 84.602,226.779 84.316,226.934 83.927 C 227.090 83.537,227.607 82.786,228.083 82.256 C 228.559 81.727,228.907 81.293,228.856 81.293 C 228.806 81.293,228.377 81.723,227.905 82.249 M238.819 81.650 C 238.932 81.809,239.198 82.148,239.412 82.402 C 239.626 82.656,239.933 83.030,240.095 83.233 C 240.389 83.602,240.389 83.602,240.211 83.228 C 240.112 83.023,239.712 82.518,239.323 82.107 C 238.933 81.696,238.706 81.490,238.819 81.650 M250.268 82.066 C 249.905 82.490,249.607 82.925,249.607 83.030 C 249.607 83.136,249.748 83.018,249.920 82.766 C 250.092 82.515,250.279 82.268,250.336 82.217 C 250.625 81.958,251.129 81.293,251.036 81.293 C 250.977 81.293,250.632 81.641,250.268 82.066 M200.824 82.228 C 200.603 82.538,200.462 82.833,200.511 82.882 C 200.561 82.932,200.775 82.677,200.987 82.317 C 201.461 81.514,201.369 81.463,200.824 82.228 M265.717 82.647 C 265.393 83.183,265.127 83.695,265.127 83.786 C 265.127 83.876,265.419 83.465,265.777 82.871 C 266.134 82.278,266.400 81.765,266.367 81.733 C 266.334 81.700,266.042 82.111,265.717 82.647 M276.045 82.587 C 276.580 83.416,276.582 83.418,276.581 83.218 C 276.581 83.125,276.366 82.799,276.104 82.494 L 275.628 81.940 276.045 82.587 M126.006 83.505 C 125.790 84.232,125.652 84.926,125.701 85.047 C 125.754 85.175,125.797 85.145,125.805 84.973 C 125.813 84.812,125.991 84.158,126.200 83.521 C 126.410 82.884,126.540 82.322,126.491 82.272 C 126.441 82.222,126.223 82.777,126.006 83.505 M165.543 83.880 C 164.924 84.693,164.455 85.358,164.501 85.358 C 164.547 85.358,165.021 84.797,165.554 84.111 C 166.086 83.425,166.603 82.760,166.702 82.633 C 166.800 82.506,166.833 82.402,166.775 82.402 C 166.716 82.402,166.162 83.067,165.543 83.880 M181.887 83.002 L 181.594 83.603 181.971 83.141 C 182.333 82.696,182.452 82.402,182.268 82.402 C 182.220 82.402,182.049 82.672,181.887 83.002 M215.693 83.017 C 215.977 83.390,216.248 83.695,216.293 83.695 C 216.422 83.695,215.622 82.614,215.385 82.468 C 215.270 82.397,215.408 82.644,215.693 83.017 M192.517 82.623 C 192.517 82.681,192.642 82.967,192.793 83.258 C 192.945 83.549,193.067 83.663,193.065 83.510 C 193.062 83.358,192.938 83.072,192.789 82.875 C 192.639 82.677,192.517 82.564,192.517 82.623 M195.963 83.048 C 196.031 83.353,196.145 83.977,196.217 84.434 L 196.348 85.266 196.358 84.527 C 196.364 84.120,196.250 83.497,196.104 83.141 C 195.865 82.557,195.852 82.548,195.963 83.048 M262.286 82.871 C 262.223 83.036,262.178 83.310,262.187 83.479 C 262.196 83.649,262.276 83.542,262.365 83.243 C 262.540 82.659,262.478 82.371,262.286 82.871 M162.024 83.557 C 161.681 83.988,161.546 84.224,161.725 84.081 C 162.061 83.811,162.853 82.771,162.722 82.771 C 162.682 82.771,162.368 83.125,162.024 83.557 M279.551 83.269 C 279.593 83.748,279.882 84.155,279.895 83.752 C 279.902 83.530,279.824 83.296,279.723 83.233 C 279.621 83.170,279.544 83.186,279.551 83.269 M178.406 83.979 C 178.343 84.145,178.300 84.543,178.311 84.865 C 178.329 85.375,178.352 85.345,178.492 84.631 C 178.657 83.790,178.611 83.444,178.406 83.979 M181.339 84.804 C 181.269 85.224,181.249 85.606,181.297 85.654 C 181.344 85.701,181.438 85.393,181.506 84.970 C 181.573 84.547,181.593 84.164,181.549 84.120 C 181.505 84.076,181.410 84.384,181.339 84.804 M261.892 84.480 C 261.836 84.709,261.814 87.764,261.842 91.270 L 261.894 97.644 263.328 97.698 C 265.105 97.765,264.918 98.554,264.981 90.723 C 265.011 87.119,264.982 84.417,264.918 84.718 C 264.854 85.019,264.791 88.030,264.779 91.409 L 264.758 97.552 263.363 97.552 L 261.969 97.552 262.024 90.808 C 262.054 87.099,262.059 84.064,262.036 84.065 C 262.012 84.065,261.948 84.252,261.892 84.480 M193.299 84.804 C 193.299 85.159,193.337 85.305,193.384 85.127 C 193.430 84.949,193.430 84.658,193.384 84.480 C 193.337 84.303,193.299 84.448,193.299 84.804 M223.302 84.718 C 223.239 84.884,223.194 85.157,223.203 85.327 C 223.212 85.496,223.292 85.390,223.382 85.090 C 223.556 84.507,223.494 84.218,223.302 84.718 M125.392 85.613 C 125.322 85.794,125.271 86.081,125.277 86.251 C 125.285 86.455,125.349 86.408,125.467 86.113 C 125.565 85.867,125.617 85.581,125.582 85.476 C 125.547 85.370,125.461 85.432,125.392 85.613 M199.469 85.642 C 199.405 85.807,199.362 86.164,199.372 86.435 C 199.387 86.832,199.424 86.787,199.560 86.208 C 199.733 85.468,199.675 85.105,199.469 85.642 M279.951 91.409 L 279.908 97.552 278.524 97.552 L 277.141 97.552 277.089 91.501 L 277.036 85.450 277.040 91.547 L 277.044 97.644 278.479 97.698 C 280.269 97.766,280.108 98.429,280.046 91.269 L 279.995 85.266 279.951 91.409 M196.396 91.547 L 196.305 97.460 194.890 97.460 C 194.112 97.460,193.514 97.522,193.562 97.598 C 193.677 97.784,196.058 97.771,196.354 97.583 C 196.536 97.467,196.576 96.133,196.537 91.535 L 196.487 85.635 196.396 91.547 M202.443 85.974 C 202.222 86.535,202.274 87.008,202.512 86.599 C 202.618 86.418,202.675 86.127,202.640 85.953 C 202.581 85.663,202.564 85.664,202.443 85.974 M244.098 87.436 L 244.065 88.499 235.104 88.499 C 230.176 88.499,226.143 88.561,226.143 88.637 C 226.143 88.914,244.069 88.703,244.175 88.426 C 244.228 88.288,244.240 87.770,244.201 87.274 L 244.131 86.374 244.098 87.436 M223.055 87.483 C 223.057 87.991,223.092 88.177,223.135 87.896 C 223.177 87.615,223.176 87.199,223.132 86.972 C 223.089 86.745,223.054 86.975,223.055 87.483 M162.993 87.242 C 162.653 87.583,162.722 87.791,163.442 88.591 C 163.808 88.998,163.998 89.164,163.864 88.961 C 163.730 88.758,163.453 88.401,163.249 88.168 C 162.938 87.814,162.914 87.684,163.103 87.382 C 163.360 86.971,163.318 86.918,162.993 87.242 M217.321 87.667 C 217.323 88.074,217.361 88.218,217.405 87.989 C 217.450 87.759,217.448 87.426,217.402 87.250 C 217.356 87.073,217.319 87.261,217.321 87.667 M152.385 87.852 C 152.316 88.259,152.212 88.799,152.154 89.053 C 152.096 89.307,152.178 89.182,152.336 88.776 C 152.494 88.370,152.599 87.829,152.568 87.575 C 152.524 87.221,152.482 87.286,152.385 87.852 M199.356 88.976 C 199.358 89.374,199.432 89.815,199.521 89.956 C 199.620 90.112,199.645 89.861,199.586 89.309 C 199.465 88.183,199.352 88.021,199.356 88.976 M202.325 88.868 C 202.331 89.021,202.407 89.312,202.494 89.515 L 202.653 89.885 202.663 89.515 C 202.669 89.312,202.593 89.021,202.494 88.868 C 202.335 88.622,202.316 88.622,202.325 88.868 M223.190 89.808 C 223.191 90.053,223.274 90.379,223.374 90.531 C 223.502 90.726,223.521 90.617,223.437 90.162 C 223.291 89.365,223.186 89.215,223.190 89.808 M165.161 90.670 C 165.606 91.203,166.006 91.640,166.049 91.640 C 166.174 91.640,165.037 90.246,164.677 89.959 C 164.498 89.816,164.716 90.136,165.161 90.670 M160.169 90.762 C 159.839 91.194,159.769 91.339,160.014 91.085 C 160.258 90.831,160.614 90.478,160.804 90.300 C 160.994 90.122,161.064 89.977,160.960 89.977 C 160.855 89.977,160.500 90.330,160.169 90.762 M220.071 90.193 C 220.058 90.362,219.992 90.653,219.927 90.839 C 219.834 91.101,219.859 91.130,220.035 90.968 C 220.160 90.853,220.225 90.562,220.179 90.322 C 220.134 90.081,220.085 90.023,220.071 90.193 M123.795 91.034 C 123.669 91.520,123.408 92.433,123.215 93.064 C 122.812 94.381,122.753 95.056,123.139 93.949 C 123.538 92.803,124.180 90.308,124.097 90.225 C 124.057 90.184,123.920 90.548,123.795 91.034 M151.260 91.180 C 151.091 91.535,150.991 91.824,151.038 91.824 C 151.164 91.824,151.725 90.693,151.640 90.609 C 151.600 90.569,151.429 90.826,151.260 91.180 M162.032 91.455 C 162.354 91.861,162.659 92.194,162.710 92.194 C 162.761 92.194,162.539 91.861,162.217 91.455 C 161.895 91.048,161.590 90.716,161.539 90.716 C 161.489 90.716,161.710 91.048,162.032 91.455 M216.197 91.648 C 215.877 92.162,215.701 92.531,215.806 92.466 C 216.063 92.307,216.952 90.886,216.855 90.789 C 216.813 90.747,216.516 91.133,216.197 91.648 M240.628 91.042 C 240.516 91.117,240.325 91.386,240.202 91.640 C 239.992 92.076,240.001 92.074,240.375 91.594 C 240.744 91.119,240.862 91.085,242.160 91.085 L 243.550 91.085 243.436 91.594 C 243.340 92.018,243.354 92.046,243.523 91.767 C 243.971 91.028,241.555 90.423,240.628 91.042 M219.365 92.213 C 219.143 92.711,218.996 93.118,219.038 93.118 C 219.173 93.118,219.885 91.618,219.826 91.460 C 219.795 91.376,219.587 91.715,219.365 92.213 M226.883 91.378 C 226.884 91.471,227.098 91.797,227.360 92.102 L 227.837 92.656 227.419 92.009 C 226.884 91.180,226.882 91.178,226.883 91.378 M223.929 91.928 C 223.937 92.362,225.590 94.781,225.879 94.781 C 225.958 94.781,225.848 94.594,225.634 94.365 C 225.420 94.136,224.949 93.455,224.586 92.852 C 224.223 92.248,223.928 91.832,223.929 91.928 M125.429 92.418 C 125.307 92.646,125.145 93.083,125.069 93.391 C 124.992 93.698,124.764 94.558,124.561 95.301 C 124.120 96.920,124.017 96.844,126.571 96.774 L 128.499 96.721 128.451 96.110 C 128.309 94.321,125.952 91.441,125.429 92.418 M239.446 92.748 C 239.229 93.053,239.093 93.303,239.143 93.303 C 239.194 93.303,239.413 93.053,239.630 92.748 C 239.848 92.443,239.984 92.194,239.933 92.194 C 239.882 92.194,239.663 92.443,239.446 92.748 M150.194 92.963 C 150.068 93.201,149.375 94.018,148.655 94.779 C 147.516 95.981,147.478 96.042,148.362 95.241 C 149.460 94.246,150.669 92.778,150.517 92.626 C 150.465 92.574,150.320 92.726,150.194 92.963 M200.462 92.629 C 200.462 92.880,201.835 94.776,202.018 94.778 C 202.112 94.780,202.020 94.594,201.814 94.365 C 201.607 94.136,201.219 93.618,200.950 93.213 C 200.682 92.809,200.462 92.546,200.462 92.629 M214.907 93.248 C 214.672 93.502,214.511 93.742,214.551 93.781 C 214.590 93.821,214.861 93.604,215.152 93.301 C 215.443 92.997,215.603 92.757,215.508 92.768 C 215.413 92.779,215.142 92.995,214.907 93.248 M163.859 93.642 C 164.064 93.931,164.378 94.284,164.557 94.427 C 164.735 94.571,164.601 94.335,164.257 93.903 C 163.552 93.016,163.291 92.845,163.859 93.642 M205.912 94.303 C 206.217 94.564,206.543 94.779,206.636 94.780 C 206.836 94.781,206.834 94.779,206.005 94.244 L 205.358 93.826 205.912 94.303 M213.585 94.328 C 213.232 94.577,213.024 94.780,213.123 94.780 C 213.222 94.779,213.552 94.574,213.857 94.324 C 214.569 93.741,214.413 93.743,213.585 94.328 M241.211 95.117 L 240.666 95.797 241.349 95.160 C 242.055 94.502,242.129 94.402,241.894 94.424 C 241.818 94.432,241.510 94.744,241.211 95.117 M164.988 94.902 C 164.988 95.003,165.217 95.287,165.497 95.534 L 166.005 95.982 165.543 95.427 C 165.289 95.122,165.060 94.838,165.035 94.796 C 165.009 94.754,164.988 94.802,164.988 94.902 M208.314 95.335 C 208.517 95.422,208.891 95.491,209.145 95.488 L 209.607 95.483 209.145 95.335 C 208.891 95.254,208.517 95.185,208.314 95.182 L 207.945 95.176 208.314 95.335 M210.624 95.335 L 209.977 95.471 210.624 95.492 C 210.979 95.504,211.395 95.433,211.547 95.335 C 211.883 95.118,211.655 95.118,210.624 95.335 M232.240 95.329 C 232.393 95.431,232.801 95.515,233.149 95.517 C 233.977 95.521,233.829 95.416,232.794 95.266 C 232.213 95.181,232.047 95.200,232.240 95.329 M234.550 95.335 L 233.995 95.476 234.550 95.485 C 234.855 95.490,235.270 95.422,235.473 95.335 L 235.843 95.176 235.473 95.185 C 235.270 95.190,234.855 95.257,234.550 95.335 M170.137 96.532 C 170.951 97.564,170.926 97.583,168.885 97.518 C 167.879 97.486,167.094 97.522,167.141 97.598 C 167.189 97.674,168.015 97.737,168.977 97.737 C 171.082 97.737,171.280 97.544,170.246 96.496 L 169.557 95.797 170.137 96.532 M146.241 96.729 C 145.736 97.079,144.904 97.504,144.393 97.674 C 143.882 97.843,143.567 98.017,143.692 98.059 C 144.007 98.164,146.541 96.923,146.964 96.456 C 147.428 95.942,147.320 95.983,146.241 96.729 M166.314 96.604 C 166.550 96.895,166.773 97.109,166.808 97.078 C 166.908 96.992,166.208 96.086,166.037 96.080 C 165.953 96.077,166.078 96.312,166.314 96.604 M239.076 96.822 L 238.614 97.193 239.122 96.973 C 239.402 96.852,239.630 96.684,239.630 96.599 C 239.630 96.388,239.605 96.398,239.076 96.822 M228.360 96.886 C 228.360 97.021,229.697 97.753,229.842 97.698 C 229.920 97.669,229.618 97.457,229.172 97.228 C 228.726 96.998,228.360 96.845,228.360 96.886 M121.878 97.306 C 121.811 97.373,121.760 97.602,121.767 97.814 C 121.778 98.168,121.793 98.163,121.956 97.756 C 122.137 97.304,122.099 97.085,121.878 97.306 M205.413 97.472 C 205.640 97.632,205.971 97.725,206.147 97.679 C 206.389 97.615,206.369 97.590,206.062 97.573 C 205.839 97.562,205.606 97.469,205.543 97.367 C 205.480 97.266,205.332 97.182,205.214 97.182 C 205.095 97.182,205.185 97.313,205.413 97.472 M178.412 97.598 C 178.459 97.674,179.070 97.737,179.769 97.737 C 180.468 97.737,181.079 97.674,181.126 97.598 C 181.173 97.522,180.563 97.460,179.769 97.460 C 178.976 97.460,178.365 97.522,178.412 97.598 M212.656 97.921 C 212.275 98.043,212.259 98.072,212.564 98.085 C 212.767 98.094,213.058 98.020,213.210 97.921 C 213.534 97.712,213.309 97.712,212.656 97.921 M230.393 97.913 C 230.545 98.016,230.829 98.102,231.024 98.103 C 231.497 98.107,231.349 98.001,230.670 97.849 C 230.265 97.759,230.190 97.776,230.393 97.913 M236.490 97.921 C 236.109 98.043,236.093 98.072,236.397 98.085 C 236.600 98.094,236.891 98.020,237.044 97.921 C 237.368 97.712,237.143 97.712,236.490 97.921 M142.356 98.291 C 141.853 98.419,141.844 98.433,142.263 98.441 C 142.517 98.446,142.891 98.378,143.095 98.291 C 143.550 98.095,143.125 98.095,142.356 98.291 M208.256 98.319 C 208.854 98.487,211.410 98.499,211.667 98.334 C 211.783 98.260,210.967 98.199,209.854 98.199 C 208.740 98.199,208.021 98.253,208.256 98.319 M231.749 98.334 C 231.867 98.409,232.711 98.470,233.626 98.470 C 234.540 98.470,235.384 98.409,235.501 98.334 C 235.618 98.260,234.774 98.199,233.625 98.199 C 232.476 98.199,231.632 98.260,231.749 98.334 M132.286 98.661 L 124.804 98.759 132.471 98.780 C 136.688 98.792,140.388 98.738,140.693 98.661 C 141.207 98.530,141.194 98.521,140.508 98.541 C 140.102 98.552,136.402 98.606,132.286 98.661 " stroke="none" fill="#ded0a4" fill-rule="evenodd"></path><path id="path3" d="M127.575 61.515 C 127.364 61.600,127.759 61.624,128.499 61.570 C 129.210 61.518,129.827 61.445,129.869 61.407 C 130.023 61.272,127.934 61.370,127.575 61.515 M123.002 61.843 C 123.333 61.884,123.873 61.884,124.203 61.843 C 124.533 61.802,124.263 61.768,123.603 61.768 C 122.942 61.768,122.672 61.802,123.002 61.843 M132.490 62.864 C 132.535 62.889,133.027 63.326,133.584 63.834 L 134.596 64.758 133.679 63.788 C 133.175 63.254,132.683 62.818,132.586 62.818 C 132.489 62.818,132.446 62.838,132.490 62.864 M116.296 65.266 L 115.566 66.051 116.351 65.320 C 117.081 64.641,117.221 64.480,117.081 64.480 C 117.051 64.480,116.698 64.834,116.296 65.266 M143.372 64.921 C 143.372 64.961,143.617 65.029,143.916 65.073 C 144.216 65.117,144.419 65.084,144.367 65.001 C 144.276 64.853,143.372 64.781,143.372 64.921 M141.965 66.057 C 141.797 66.314,141.693 66.558,141.734 66.599 C 141.775 66.640,141.948 66.430,142.120 66.131 C 142.501 65.467,142.388 65.412,141.965 66.057 M135.630 66.409 C 135.843 66.771,136.054 67.067,136.097 67.067 C 136.228 67.067,135.628 65.990,135.428 65.867 C 135.326 65.803,135.416 66.047,135.630 66.409 M143.094 66.514 C 142.621 67.036,142.822 67.084,143.319 66.568 C 143.544 66.334,143.661 66.143,143.579 66.143 C 143.496 66.143,143.278 66.310,143.094 66.514 M141.552 67.468 C 141.537 67.739,141.476 68.113,141.418 68.299 C 141.317 68.619,141.323 68.619,141.522 68.309 C 141.638 68.129,141.698 67.755,141.656 67.478 L 141.580 66.975 141.552 67.468 M145.009 67.447 L 144.573 67.828 145.127 67.503 C 145.857 67.076,145.867 67.067,145.640 67.067 C 145.533 67.067,145.249 67.238,145.009 67.447 M147.691 67.569 C 147.894 67.809,147.996 68.134,147.939 68.354 C 147.885 68.561,147.916 68.684,148.008 68.627 C 148.310 68.440,148.184 67.870,147.760 67.511 L 147.344 67.159 147.691 67.569 M142.520 68.728 C 142.547 70.332,142.888 70.402,143.805 68.990 C 144.179 68.413,144.359 68.047,144.204 68.175 C 144.049 68.303,143.741 68.732,143.519 69.127 C 142.984 70.078,142.749 69.947,142.613 68.623 L 142.500 67.529 142.520 68.728 M145.099 68.961 C 144.059 70.070,143.528 71.316,144.094 71.316 C 144.186 71.316,144.218 71.153,144.166 70.954 C 144.051 70.513,144.673 69.466,145.429 68.830 C 145.736 68.572,145.914 68.360,145.824 68.360 C 145.735 68.360,145.408 68.630,145.099 68.961 M116.168 69.238 C 116.407 69.467,116.702 69.651,116.823 69.648 C 116.945 69.645,116.878 69.550,116.674 69.437 C 116.471 69.325,116.176 69.140,116.019 69.027 C 115.861 68.914,115.928 69.009,116.168 69.238 M141.516 69.560 C 141.443 70.204,141.361 70.314,140.878 70.416 C 140.380 70.522,140.370 70.536,140.785 70.553 C 141.528 70.583,141.742 70.338,141.667 69.542 L 141.600 68.822 141.516 69.560 M117.555 69.786 C 117.835 69.829,118.251 69.827,118.478 69.784 C 118.706 69.740,118.476 69.705,117.968 69.706 C 117.460 69.708,117.274 69.744,117.555 69.786 M119.039 71.316 C 119.039 71.875,119.074 72.104,119.116 71.824 C 119.158 71.545,119.158 71.088,119.116 70.808 C 119.074 70.529,119.039 70.758,119.039 71.316 M157.503 79.892 C 157.505 88.096,157.541 89.309,157.783 89.375 C 157.986 89.431,157.999 89.408,157.831 89.288 C 157.655 89.163,157.590 86.966,157.551 79.805 L 157.501 70.485 157.503 79.892 M172.819 72.702 C 172.819 73.921,172.849 74.396,172.885 73.757 C 172.921 73.118,172.921 72.120,172.885 71.540 C 172.848 70.960,172.818 71.483,172.819 72.702 M175.407 72.887 C 175.407 74.208,175.436 74.724,175.472 74.034 C 175.508 73.344,175.507 72.263,175.471 71.632 C 175.435 71.001,175.406 71.566,175.407 72.887 M217.725 75.473 C 217.725 78.217,217.751 79.365,217.782 78.025 C 217.814 76.685,217.814 74.440,217.783 73.036 C 217.751 71.633,217.725 72.730,217.725 75.473 M220.132 80.000 C 220.132 85.233,220.156 87.374,220.185 84.758 C 220.214 82.141,220.214 77.859,220.185 75.242 C 220.156 72.626,220.132 74.767,220.132 80.000 M259.101 72.794 C 259.101 74.065,259.131 74.584,259.167 73.949 C 259.203 73.314,259.203 72.275,259.167 71.640 C 259.131 71.005,259.101 71.524,259.101 72.794 M145.958 72.112 C 145.958 72.153,146.436 72.544,147.021 72.981 C 147.605 73.418,147.963 73.631,147.817 73.454 C 147.542 73.123,145.958 71.979,145.958 72.112 M148.572 74.183 C 148.841 74.486,149.402 75.226,149.819 75.827 C 150.236 76.429,150.577 76.855,150.577 76.775 C 150.577 76.534,148.991 74.392,148.521 73.998 C 148.142 73.681,148.149 73.706,148.572 74.183 M124.487 76.215 C 124.591 76.419,124.872 76.751,125.110 76.952 C 125.527 77.305,125.527 77.299,125.084 76.765 C 124.348 75.879,124.286 75.822,124.487 76.215 M145.127 76.746 C 146.195 77.211,146.305 77.594,145.381 77.628 C 144.673 77.654,144.649 77.667,145.191 77.733 C 145.531 77.775,145.928 77.763,146.073 77.708 C 146.612 77.501,145.528 76.473,144.795 76.497 C 144.673 76.501,144.822 76.613,145.127 76.746 M186.282 76.986 C 186.460 77.033,186.751 77.033,186.928 76.986 C 187.106 76.940,186.961 76.902,186.605 76.902 C 186.249 76.902,186.104 76.940,186.282 76.986 M187.544 76.925 C 187.587 76.962,188.037 77.040,188.545 77.099 C 189.139 77.167,189.337 77.148,189.099 77.045 C 188.746 76.892,187.384 76.787,187.544 76.925 M231.594 77.053 C 231.336 77.169,231.448 77.186,231.963 77.107 C 232.370 77.045,232.737 76.964,232.779 76.927 C 232.938 76.787,231.948 76.892,231.594 77.053 M234.642 77.044 C 234.896 77.125,235.270 77.192,235.473 77.192 C 235.766 77.192,235.747 77.161,235.381 77.044 C 235.127 76.963,234.753 76.896,234.550 76.896 C 234.257 76.896,234.276 76.927,234.642 77.044 M269.887 76.990 C 270.117 77.034,270.449 77.032,270.626 76.986 C 270.802 76.940,270.614 76.904,270.208 76.906 C 269.801 76.908,269.657 76.946,269.887 76.990 M271.365 76.990 C 271.595 77.034,271.927 77.032,272.104 76.986 C 272.280 76.940,272.092 76.904,271.686 76.906 C 271.279 76.908,271.135 76.946,271.365 76.990 M209.095 77.362 C 209.423 77.403,210.005 77.403,210.388 77.363 C 210.772 77.323,210.503 77.290,209.792 77.289 C 209.081 77.288,208.767 77.321,209.095 77.362 M253.825 77.352 C 254.233 77.438,254.252 77.510,254.195 78.713 C 254.161 79.412,254.201 79.916,254.282 79.834 C 254.685 79.429,254.333 77.322,253.857 77.291 C 253.422 77.262,253.420 77.266,253.825 77.352 M167.719 77.734 C 168.153 77.773,168.818 77.772,169.197 77.732 C 169.575 77.693,169.219 77.661,168.406 77.661 C 167.594 77.662,167.284 77.695,167.719 77.734 M174.321 77.731 L 175.341 77.802 175.292 87.668 C 175.265 93.094,175.306 97.471,175.383 97.393 C 175.460 97.316,175.501 92.851,175.475 87.472 L 175.427 77.691 174.364 77.675 L 173.301 77.660 174.321 77.731 M246.366 77.829 C 246.318 77.956,246.300 82.425,246.328 87.760 L 246.378 97.460 246.422 87.630 L 246.467 77.801 247.621 77.735 L 248.776 77.669 247.615 77.634 C 246.829 77.610,246.426 77.673,246.366 77.829 M257.878 77.730 L 259.036 77.801 258.987 87.667 C 258.960 93.094,259.001 97.471,259.078 97.393 C 259.155 97.316,259.197 92.851,259.170 87.472 L 259.122 77.691 257.921 77.675 L 256.721 77.659 257.878 77.730 M151.150 77.783 C 151.143 77.834,151.347 78.416,151.603 79.076 C 151.859 79.737,152.017 80.028,151.955 79.723 C 151.849 79.202,151.177 77.583,151.150 77.783 M172.838 87.560 C 172.840 96.174,172.876 97.438,173.118 97.504 C 173.321 97.560,173.334 97.537,173.166 97.418 C 172.989 97.292,172.925 95.003,172.886 87.473 L 172.836 77.691 172.838 87.560 M169.423 78.522 C 169.206 78.827,169.070 79.076,169.120 79.076 C 169.171 79.076,169.390 78.827,169.607 78.522 C 169.824 78.217,169.960 77.968,169.910 77.968 C 169.859 77.968,169.640 78.217,169.423 78.522 M165.463 79.492 C 164.982 80.127,164.851 80.356,165.172 80.000 C 165.841 79.258,166.528 78.337,166.414 78.337 C 166.371 78.337,165.943 78.857,165.463 79.492 M214.693 78.580 C 214.969 78.880,216.210 79.629,215.990 79.364 C 215.848 79.192,215.476 78.922,215.164 78.763 C 214.851 78.605,214.640 78.522,214.693 78.580 M249.782 79.215 L 249.145 79.908 249.838 79.271 C 250.219 78.921,250.531 78.609,250.531 78.578 C 250.531 78.437,250.375 78.570,249.782 79.215 M145.215 79.668 C 145.166 80.146,145.194 80.469,145.278 80.385 C 145.361 80.302,145.401 79.911,145.367 79.516 L 145.304 78.799 145.215 79.668 M193.072 78.949 C 193.072 78.981,193.342 79.251,193.672 79.550 L 194.273 80.092 193.730 79.492 C 193.224 78.932,193.072 78.807,193.072 78.949 M203.102 79.954 C 202.188 80.832,202.159 80.875,202.938 80.202 C 204.261 79.058,204.435 78.891,204.314 78.891 C 204.256 78.891,203.710 79.370,203.102 79.954 M264.563 79.584 L 263.926 80.277 264.619 79.640 C 265.000 79.290,265.312 78.978,265.312 78.948 C 265.312 78.807,265.155 78.939,264.563 79.584 M248.709 79.758 C 248.680 80.225,248.964 80.478,249.161 80.159 C 249.242 80.029,249.215 79.992,249.095 80.067 C 248.979 80.138,248.861 80.013,248.814 79.772 C 248.735 79.356,248.734 79.356,248.709 79.758 M209.561 79.943 C 209.739 79.989,210.030 79.989,210.208 79.943 C 210.386 79.896,210.240 79.858,209.885 79.858 C 209.529 79.858,209.383 79.896,209.561 79.943 M152.081 80.554 C 152.081 80.707,152.153 80.998,152.240 81.201 C 152.340 81.434,152.399 81.468,152.399 81.293 C 152.399 81.141,152.328 80.850,152.240 80.647 C 152.140 80.414,152.081 80.380,152.081 80.554 M263.457 80.934 C 263.235 81.245,263.085 81.530,263.123 81.568 C 263.161 81.606,263.378 81.351,263.607 81.003 C 264.122 80.217,264.005 80.164,263.457 80.934 M274.196 80.416 C 274.238 80.441,274.522 80.670,274.827 80.924 L 275.381 81.386 274.933 80.878 C 274.687 80.598,274.403 80.370,274.302 80.370 C 274.201 80.370,274.153 80.390,274.196 80.416 M266.410 81.432 L 265.774 82.125 266.467 81.488 C 266.848 81.138,267.159 80.826,267.159 80.795 C 267.159 80.654,267.003 80.787,266.410 81.432 M167.021 81.663 C 166.804 81.968,166.668 82.217,166.718 82.217 C 166.769 82.217,166.988 81.968,167.206 81.663 C 167.423 81.358,167.559 81.109,167.508 81.109 C 167.457 81.109,167.238 81.358,167.021 81.663 M239.169 81.848 C 239.565 82.254,239.932 82.587,239.983 82.587 C 240.033 82.587,239.750 82.254,239.353 81.848 C 238.956 81.441,238.590 81.109,238.539 81.109 C 238.489 81.109,238.772 81.441,239.169 81.848 M142.762 81.617 C 142.826 81.794,142.990 82.104,143.125 82.304 C 143.654 83.086,142.990 83.108,142.079 82.340 L 141.617 81.950 142.079 82.449 C 142.333 82.723,142.827 83.004,143.177 83.074 L 143.814 83.202 143.408 82.514 C 143.185 82.136,143.002 81.706,143.002 81.560 C 143.002 81.413,142.922 81.293,142.823 81.293 C 142.725 81.293,142.697 81.439,142.762 81.617 M224.379 82.604 C 224.217 82.918,224.116 83.208,224.156 83.248 C 224.197 83.288,224.368 83.031,224.537 82.677 C 224.917 81.880,224.785 81.819,224.379 82.604 M152.669 84.434 C 152.669 85.095,152.702 85.365,152.743 85.035 C 152.784 84.704,152.784 84.164,152.743 83.834 C 152.702 83.503,152.669 83.774,152.669 84.434 M195.956 83.972 C 196.108 84.652,196.213 84.799,196.210 84.326 C 196.208 84.132,196.122 83.848,196.019 83.695 C 195.882 83.493,195.865 83.567,195.956 83.972 M249.100 84.527 C 249.102 84.933,249.140 85.078,249.184 84.848 C 249.228 84.618,249.226 84.285,249.180 84.109 C 249.134 83.932,249.098 84.120,249.100 84.527 M181.178 84.349 C 181.114 84.514,181.072 84.871,181.084 85.142 C 181.100 85.511,181.141 85.450,181.249 84.896 C 181.402 84.111,181.368 83.852,181.178 84.349 M262.106 85.035 C 261.941 86.409,261.957 97.328,262.125 97.431 C 262.201 97.478,262.263 94.489,262.263 90.790 C 262.263 87.091,262.254 84.065,262.243 84.065 C 262.232 84.065,262.170 84.501,262.106 85.035 M226.074 84.903 C 226.010 85.068,225.966 85.342,225.974 85.512 C 225.983 85.681,226.063 85.575,226.153 85.275 C 226.327 84.692,226.266 84.403,226.074 84.903 M178.519 85.543 C 178.519 85.898,178.557 86.044,178.603 85.866 C 178.650 85.688,178.650 85.397,178.603 85.219 C 178.557 85.042,178.519 85.187,178.519 85.543 M264.656 91.178 C 264.656 94.633,264.681 96.020,264.711 94.261 C 264.741 92.501,264.741 89.675,264.711 87.979 C 264.680 86.283,264.656 87.723,264.656 91.178 M279.723 91.215 C 279.672 94.690,279.694 97.470,279.772 97.393 C 279.849 97.315,279.891 94.471,279.864 91.074 L 279.815 84.896 279.723 91.215 M277.176 91.213 C 277.154 94.586,277.199 97.384,277.275 97.431 C 277.351 97.478,277.392 95.675,277.366 93.424 C 277.279 85.791,277.216 85.061,277.176 91.213 M193.666 91.398 C 193.644 94.669,193.688 97.384,193.764 97.431 C 193.841 97.479,193.882 95.758,193.856 93.608 C 193.766 86.182,193.705 85.472,193.666 91.398 M202.240 85.827 C 202.177 85.992,202.134 86.349,202.146 86.620 C 202.162 86.989,202.203 86.928,202.311 86.374 C 202.464 85.589,202.431 85.330,202.240 85.827 M243.916 86.973 L 243.880 88.311 234.965 88.359 L 226.051 88.406 226.034 89.053 C 226.018 89.697,226.018 89.698,226.092 89.099 L 226.165 88.499 235.028 88.499 C 242.316 88.499,243.909 88.454,243.988 88.248 C 244.040 88.111,244.054 87.466,244.017 86.817 L 243.951 85.635 243.916 86.973 M223.244 87.483 C 223.245 88.092,223.280 88.320,223.321 87.987 C 223.362 87.655,223.361 87.157,223.319 86.879 C 223.277 86.601,223.243 86.873,223.244 87.483 M217.519 87.760 C 217.519 88.420,217.552 88.691,217.593 88.360 C 217.634 88.030,217.634 87.490,217.593 87.159 C 217.552 86.829,217.519 87.099,217.519 87.760 M152.161 87.865 C 152.093 88.136,152.073 88.393,152.117 88.437 C 152.160 88.480,152.251 88.295,152.319 88.024 C 152.387 87.753,152.407 87.496,152.364 87.452 C 152.320 87.409,152.229 87.595,152.161 87.865 M202.128 88.884 C 202.129 89.129,202.212 89.455,202.312 89.607 C 202.440 89.802,202.459 89.693,202.375 89.238 C 202.229 88.441,202.124 88.291,202.128 88.884 M123.893 91.561 C 123.825 91.831,123.805 92.088,123.849 92.132 C 123.892 92.176,123.984 91.990,124.051 91.719 C 124.119 91.448,124.139 91.191,124.096 91.147 C 124.052 91.104,123.961 91.290,123.893 91.561 M226.790 91.640 C 226.947 91.945,227.118 92.194,227.169 92.194 C 227.220 92.194,227.132 91.945,226.975 91.640 C 226.817 91.335,226.646 91.085,226.596 91.085 C 226.545 91.085,226.632 91.335,226.790 91.640 M241.432 91.219 C 241.762 91.260,242.303 91.260,242.633 91.219 C 242.963 91.178,242.693 91.145,242.032 91.145 C 241.372 91.145,241.102 91.178,241.432 91.219 M150.116 92.610 C 149.836 93.042,149.471 93.566,149.307 93.775 C 149.142 93.984,149.256 93.889,149.561 93.562 C 150.098 92.988,150.864 91.824,150.705 91.824 C 150.662 91.824,150.397 92.178,150.116 92.610 M166.298 92.308 C 166.543 92.625,166.781 92.851,166.826 92.811 C 166.872 92.770,166.671 92.511,166.380 92.235 L 165.852 91.732 166.298 92.308 M224.722 93.039 C 224.880 93.351,225.151 93.723,225.322 93.865 C 225.493 94.008,225.411 93.796,225.139 93.395 C 224.496 92.447,224.364 92.335,224.722 93.039 M228.176 93.395 C 228.520 93.751,228.844 94.042,228.895 94.042 C 228.945 94.042,228.705 93.751,228.360 93.395 C 228.016 93.039,227.692 92.748,227.641 92.748 C 227.590 92.748,227.831 93.039,228.176 93.395 M164.422 93.995 C 164.867 94.529,165.267 94.965,165.310 94.965 C 165.435 94.965,164.298 93.571,163.938 93.285 C 163.759 93.142,163.977 93.462,164.422 93.995 M217.660 94.482 L 217.214 95.058 217.743 94.555 C 218.034 94.279,218.234 94.020,218.189 93.979 C 218.143 93.939,217.906 94.165,217.660 94.482 M167.945 94.284 C 167.945 94.316,168.215 94.586,168.545 94.885 L 169.145 95.427 168.603 94.827 C 168.097 94.267,167.945 94.141,167.945 94.284 M202.587 95.150 C 203.087 95.658,203.538 96.074,203.589 96.074 C 203.640 96.074,203.272 95.658,202.771 95.150 C 202.271 94.642,201.820 94.226,201.769 94.226 C 201.718 94.226,202.086 94.642,202.587 95.150 M226.320 95.012 C 227.086 95.827,227.252 95.974,227.252 95.835 C 227.252 95.806,226.857 95.411,226.374 94.958 L 225.497 94.134 226.320 95.012 M147.578 95.432 C 147.198 95.785,146.953 96.074,147.033 96.074 C 147.114 96.074,147.461 95.783,147.806 95.427 C 148.610 94.597,148.472 94.600,147.578 95.432 M165.543 95.272 C 165.543 95.373,165.771 95.657,166.051 95.903 L 166.559 96.351 166.097 95.797 C 165.843 95.492,165.614 95.208,165.589 95.166 C 165.564 95.123,165.543 95.171,165.543 95.272 M216.479 95.618 C 216.194 95.869,216.034 96.074,216.124 96.074 C 216.213 96.074,216.482 95.866,216.721 95.612 C 217.273 95.024,217.151 95.027,216.479 95.618 M209.099 95.655 C 209.531 95.694,210.238 95.694,210.670 95.655 C 211.102 95.616,210.748 95.584,209.885 95.584 C 209.021 95.584,208.667 95.616,209.099 95.655 M233.031 95.656 C 233.517 95.694,234.265 95.693,234.694 95.655 C 235.123 95.616,234.725 95.585,233.811 95.585 C 232.896 95.586,232.545 95.617,233.031 95.656 M145.681 96.813 C 145.376 97.015,145.210 97.179,145.312 97.177 C 145.497 97.174,146.502 96.454,146.328 96.449 C 146.277 96.447,145.986 96.611,145.681 96.813 M167.061 97.096 C 167.338 97.387,167.597 97.588,167.637 97.542 C 167.678 97.497,167.452 97.259,167.135 97.014 L 166.559 96.568 167.061 97.096 M170.208 96.920 C 170.386 97.132,170.476 97.360,170.408 97.428 C 170.340 97.496,170.382 97.552,170.500 97.552 C 170.839 97.552,170.754 97.272,170.300 96.888 C 169.885 96.536,169.885 96.536,170.208 96.920 M209.023 98.172 C 209.648 98.268,210.502 98.270,211.055 98.176 C 211.888 98.034,211.751 98.013,209.977 98.010 C 208.107 98.006,208.031 98.019,209.023 98.172 M233.811 98.106 L 232.702 98.229 233.718 98.238 C 234.277 98.243,234.984 98.184,235.289 98.106 C 235.999 97.926,235.444 97.926,233.811 98.106 M136.203 98.428 C 137.087 98.462,138.584 98.462,139.529 98.429 C 140.474 98.395,139.751 98.368,137.921 98.367 C 136.092 98.367,135.319 98.395,136.203 98.428 M127.333 98.614 C 128.623 98.645,130.784 98.646,132.137 98.614 C 133.489 98.582,132.434 98.556,129.792 98.556 C 127.150 98.556,126.044 98.582,127.333 98.614 " stroke="none" fill="#8c8c8c" fill-rule="evenodd"></path><path id="path4" d="M124.988 61.905 C 125.463 62.095,126.222 62.111,126.494 61.937 C 126.611 61.862,126.237 61.791,125.663 61.779 C 124.975 61.764,124.745 61.807,124.988 61.905 M119.723 62.725 C 119.469 62.870,119.344 62.989,119.446 62.989 C 119.547 62.989,119.838 62.870,120.092 62.725 C 120.346 62.580,120.471 62.461,120.370 62.461 C 120.268 62.461,119.977 62.580,119.723 62.725 M133.487 63.557 C 133.884 63.963,134.251 64.296,134.301 64.296 C 134.352 64.296,134.069 63.963,133.672 63.557 C 133.275 63.150,132.909 62.818,132.858 62.818 C 132.807 62.818,133.090 63.150,133.487 63.557 M121.848 63.247 C 115.662 65.668,114.416 69.255,120.000 68.568 L 121.293 68.409 119.243 68.385 C 115.770 68.343,115.627 67.121,118.851 65.021 C 123.982 61.679,128.136 63.139,131.894 69.607 C 132.322 70.344,132.716 70.947,132.770 70.947 C 132.935 70.947,131.721 68.882,130.924 67.806 C 128.020 63.887,124.601 62.170,121.848 63.247 M117.598 64.035 L 117.044 64.511 117.644 64.114 C 117.975 63.895,118.245 63.680,118.245 63.636 C 118.245 63.498,118.167 63.546,117.598 64.035 M116.203 65.173 L 115.566 65.866 116.259 65.229 C 116.904 64.637,117.036 64.480,116.895 64.480 C 116.864 64.480,116.553 64.792,116.203 65.173 M144.480 65.749 C 144.480 65.871,144.293 66.046,144.065 66.137 C 143.783 66.251,143.746 66.308,143.950 66.316 C 144.291 66.330,144.779 65.826,144.599 65.646 C 144.534 65.581,144.480 65.627,144.480 65.749 M126.559 67.436 C 127.424 68.301,127.053 68.480,122.125 69.570 C 120.120 70.014,119.536 71.048,120.446 72.540 C 121.415 74.129,126.944 74.068,128.963 72.446 C 129.466 72.041,129.707 71.958,130.026 72.076 C 131.311 72.551,129.457 73.965,126.651 74.648 C 125.307 74.975,125.124 75.218,125.699 75.918 C 126.002 76.288,127.305 76.851,127.852 76.849 C 128.154 76.848,127.962 76.726,127.300 76.497 C 126.145 76.098,125.117 75.144,125.743 75.052 C 128.961 74.578,131.640 72.662,130.178 71.880 C 129.778 71.665,129.663 71.698,129.023 72.212 C 127.084 73.770,121.836 73.986,120.762 72.552 C 119.591 70.990,120.285 70.210,123.510 69.465 C 126.741 68.719,127.191 68.511,127.023 67.841 C 126.906 67.375,126.637 67.076,126.328 67.070 C 126.252 67.068,126.356 67.233,126.559 67.436 M124.988 67.436 C 124.756 67.537,124.721 67.595,124.896 67.595 C 125.048 67.595,125.339 67.524,125.543 67.436 C 125.776 67.336,125.810 67.278,125.635 67.278 C 125.483 67.278,125.192 67.349,124.988 67.436 M144.376 67.852 L 143.834 68.453 144.434 67.910 C 144.764 67.612,145.035 67.341,145.035 67.310 C 145.035 67.167,144.882 67.292,144.376 67.852 M121.755 68.176 C 121.134 68.374,121.805 68.374,122.587 68.176 C 123.084 68.049,123.094 68.034,122.679 68.031 C 122.425 68.029,122.009 68.094,121.755 68.176 M115.294 68.304 C 115.291 68.425,115.476 68.720,115.704 68.959 C 115.933 69.199,116.028 69.266,115.915 69.108 C 115.802 68.951,115.618 68.656,115.505 68.453 C 115.392 68.249,115.297 68.182,115.294 68.304 M141.336 69.414 C 141.287 69.942,141.315 70.307,141.398 70.224 C 141.480 70.141,141.520 69.709,141.487 69.263 L 141.425 68.453 141.336 69.414 M145.115 69.145 L 144.573 69.746 145.173 69.203 C 145.503 68.905,145.774 68.635,145.774 68.603 C 145.774 68.460,145.621 68.586,145.115 69.145 M137.650 69.770 C 137.637 70.246,138.188 70.408,139.613 70.345 L 141.062 70.282 139.547 70.245 C 138.325 70.215,137.996 70.145,137.844 69.885 C 137.740 69.707,137.653 69.655,137.650 69.770 M117.739 69.971 C 118.020 70.013,118.436 70.012,118.663 69.968 C 118.890 69.925,118.661 69.890,118.152 69.891 C 117.644 69.893,117.458 69.928,117.739 69.971 M154.727 70.624 C 154.678 70.751,154.661 76.841,154.688 84.157 L 154.737 97.460 154.782 84.027 L 154.827 70.594 156.166 70.530 L 157.506 70.466 156.160 70.429 C 155.226 70.404,154.788 70.463,154.727 70.624 M173.437 70.526 C 173.765 70.567,174.347 70.567,174.730 70.527 C 175.114 70.487,174.845 70.454,174.134 70.453 C 173.423 70.452,173.109 70.485,173.437 70.526 M218.337 70.526 C 218.667 70.567,219.208 70.567,219.538 70.526 C 219.868 70.485,219.598 70.452,218.938 70.452 C 218.277 70.452,218.007 70.485,218.337 70.526 M257.321 70.526 C 257.651 70.567,258.192 70.567,258.522 70.526 C 258.852 70.485,258.582 70.452,257.921 70.452 C 257.261 70.452,256.991 70.485,257.321 70.526 M256.515 72.887 C 256.516 74.208,256.545 74.724,256.581 74.034 C 256.616 73.344,256.616 72.263,256.580 71.632 C 256.544 71.001,256.515 71.566,256.515 72.887 M133.655 72.887 C 134.226 74.201,134.726 75.062,134.350 74.084 C 133.964 73.079,133.225 71.501,133.141 71.501 C 133.092 71.501,133.323 72.125,133.655 72.887 M138.707 72.192 C 139.240 72.229,140.113 72.229,140.647 72.192 C 141.180 72.154,140.744 72.124,139.677 72.124 C 138.610 72.124,138.173 72.154,138.707 72.192 M136.813 72.425 L 136.443 72.584 136.813 72.594 C 137.016 72.599,137.307 72.523,137.460 72.425 C 137.827 72.188,137.365 72.188,136.813 72.425 M141.894 72.425 C 142.046 72.523,142.337 72.599,142.540 72.594 L 142.910 72.584 142.540 72.425 C 141.988 72.188,141.526 72.188,141.894 72.425 M135.427 73.351 C 135.427 73.454,135.505 73.683,135.599 73.859 C 136.994 76.457,136.595 77.764,134.402 77.780 C 134.194 77.782,133.944 77.858,133.848 77.949 C 133.648 78.137,132.570 78.316,130.785 78.455 C 129.624 78.546,128.790 79.152,129.227 79.588 C 129.279 79.641,129.380 79.526,129.451 79.334 C 129.650 78.797,129.880 78.713,131.178 78.705 C 132.472 78.697,133.659 78.484,134.688 78.075 C 135.044 77.934,135.608 77.715,135.942 77.590 C 136.867 77.244,136.992 76.841,136.560 75.603 C 135.867 73.616,135.427 72.743,135.427 73.351 M144.942 73.475 C 145.044 73.574,145.571 73.972,146.113 74.361 C 146.989 74.988,148.175 76.252,149.154 77.603 C 149.472 78.043,149.472 78.035,149.154 77.418 C 148.734 76.606,146.248 74.108,145.399 73.646 C 145.046 73.454,144.841 73.377,144.942 73.475 M122.358 74.959 C 122.639 75.002,123.055 75.001,123.282 74.957 C 123.509 74.913,123.279 74.878,122.771 74.880 C 122.263 74.881,122.077 74.917,122.358 74.959 M143.066 75.338 C 142.949 75.412,143.419 75.473,144.111 75.473 C 144.803 75.473,145.273 75.412,145.156 75.338 C 145.038 75.263,144.568 75.202,144.111 75.202 C 143.654 75.202,143.183 75.263,143.066 75.338 M134.774 75.852 C 134.676 76.000,134.033 76.257,133.345 76.425 C 132.658 76.592,132.134 76.768,132.182 76.816 C 132.357 76.991,134.906 76.250,135.003 75.996 C 135.144 75.628,134.988 75.530,134.774 75.852 M141.498 76.166 C 141.145 76.497,141.027 76.634,141.236 76.472 C 141.446 76.310,141.822 76.040,142.073 75.872 C 142.325 75.704,142.442 75.566,142.335 75.566 C 142.228 75.566,141.851 75.836,141.498 76.166 M145.774 75.634 C 145.774 75.671,146.096 75.915,146.490 76.176 C 146.945 76.476,147.383 77.005,147.691 77.622 C 147.957 78.157,148.176 78.452,148.176 78.277 C 148.176 77.793,147.340 76.575,146.641 76.042 C 146.063 75.602,145.774 75.465,145.774 75.634 M143.788 76.617 C 143.965 76.663,144.256 76.663,144.434 76.617 C 144.612 76.570,144.467 76.532,144.111 76.532 C 143.755 76.532,143.610 76.570,143.788 76.617 M129.382 76.995 C 129.868 77.033,130.616 77.033,131.045 76.994 C 131.474 76.955,131.076 76.924,130.162 76.925 C 129.247 76.925,128.896 76.957,129.382 76.995 M145.577 77.122 C 145.754 77.335,145.714 77.401,145.369 77.470 C 145.087 77.525,145.144 77.548,145.536 77.537 C 146.095 77.522,146.112 77.501,145.831 77.190 C 145.477 76.799,145.261 76.741,145.577 77.122 M256.528 77.829 C 256.480 77.956,256.461 82.425,256.488 87.760 L 256.536 97.460 256.628 87.529 C 256.679 82.067,256.697 77.598,256.669 77.598 C 256.640 77.598,256.577 77.702,256.528 77.829 M248.736 78.614 C 248.738 79.122,248.774 79.308,248.816 79.027 C 248.859 78.747,248.858 78.331,248.814 78.104 C 248.770 77.876,248.735 78.106,248.736 78.614 M149.477 78.175 C 149.473 78.238,149.672 78.737,149.920 79.283 C 150.168 79.830,150.372 80.152,150.374 80.000 C 150.376 79.734,149.494 77.939,149.477 78.175 M139.793 78.753 C 139.648 79.294,139.668 80.560,139.828 80.962 C 139.897 81.136,139.956 80.616,139.959 79.807 C 139.964 78.197,139.956 78.144,139.793 78.753 M148.235 79.815 C 148.235 80.476,148.268 80.746,148.309 80.416 C 148.350 80.085,148.350 79.545,148.309 79.215 C 148.268 78.885,148.235 79.155,148.235 79.815 M180.868 79.584 L 180.231 80.277 180.924 79.640 C 181.569 79.048,181.702 78.891,181.560 78.891 C 181.530 78.891,181.218 79.203,180.868 79.584 M141.013 79.815 C 141.013 80.171,141.051 80.316,141.097 80.139 C 141.144 79.961,141.144 79.670,141.097 79.492 C 141.051 79.314,141.013 79.460,141.013 79.815 M128.608 81.132 C 128.371 81.881,128.096 82.719,127.996 82.993 C 127.897 83.267,127.851 83.600,127.896 83.732 C 127.940 83.864,128.163 83.349,128.390 82.587 C 128.617 81.824,128.889 80.977,128.993 80.702 C 129.097 80.428,129.150 80.106,129.110 79.987 C 129.071 79.868,128.844 80.383,128.608 81.132 M147.818 81.906 C 146.994 84.394,143.535 85.248,141.564 83.450 C 140.811 82.764,140.765 82.744,141.147 83.267 C 141.550 83.821,141.557 83.873,141.261 84.170 C 140.048 85.382,144.445 85.145,147.206 83.849 C 148.368 83.303,148.720 82.764,148.075 82.517 C 147.848 82.430,147.832 82.330,147.995 82.025 C 148.107 81.814,148.166 81.543,148.125 81.422 C 148.085 81.300,147.946 81.518,147.818 81.906 M150.778 81.940 C 150.772 82.143,150.848 82.434,150.947 82.587 C 151.184 82.954,151.184 82.492,150.947 81.940 L 150.788 81.570 150.778 81.940 M214.688 81.721 C 214.688 81.752,214.958 82.023,215.289 82.321 L 215.889 82.864 215.346 82.263 C 214.841 81.704,214.688 81.578,214.688 81.721 M127.586 84.291 C 127.433 84.641,127.552 84.787,128.679 85.630 C 129.673 86.373,131.492 88.238,132.058 89.094 C 132.615 89.936,132.810 90.021,132.343 89.218 C 131.989 88.609,129.694 86.190,128.563 85.233 C 128.191 84.918,127.851 84.506,127.806 84.317 C 127.731 83.999,127.714 83.997,127.586 84.291 M196.295 91.270 C 196.295 94.674,196.320 96.067,196.351 94.365 C 196.381 92.663,196.381 89.878,196.351 88.176 C 196.320 86.473,196.295 87.866,196.295 91.270 M249.136 91.270 C 249.136 94.674,249.161 96.067,249.191 94.365 C 249.222 92.663,249.222 89.878,249.191 88.176 C 249.161 86.473,249.136 87.866,249.136 91.270 M178.374 91.363 C 178.374 94.716,178.399 96.114,178.429 94.469 C 178.460 92.824,178.460 90.081,178.429 88.372 C 178.399 86.663,178.374 88.009,178.374 91.363 M193.481 91.305 C 193.459 94.627,193.503 97.384,193.580 97.431 C 193.656 97.479,193.697 95.717,193.671 93.516 C 193.583 85.987,193.521 85.267,193.481 91.305 M181.145 91.455 C 181.145 94.758,181.170 96.109,181.201 94.457 C 181.231 92.806,181.231 90.104,181.201 88.453 C 181.170 86.801,181.145 88.152,181.145 91.455 M226.117 85.961 C 226.195 86.038,229.620 86.079,233.730 86.053 L 241.201 86.004 233.589 85.912 C 229.402 85.861,226.040 85.883,226.117 85.961 M150.888 86.352 C 150.819 86.533,150.767 86.820,150.774 86.990 C 150.782 87.194,150.846 87.147,150.964 86.852 C 151.062 86.607,151.114 86.320,151.078 86.215 C 151.043 86.109,150.958 86.171,150.888 86.352 M199.404 87.575 C 199.404 88.032,199.440 88.219,199.484 87.991 C 199.528 87.762,199.528 87.388,199.484 87.159 C 199.440 86.931,199.404 87.118,199.404 87.575 M202.175 87.760 C 202.175 88.217,202.211 88.404,202.255 88.176 C 202.299 87.947,202.299 87.573,202.255 87.344 C 202.211 87.115,202.175 87.303,202.175 87.760 M149.528 90.337 C 148.772 91.906,147.371 93.592,145.866 94.743 C 145.561 94.976,145.699 94.915,146.172 94.607 C 147.725 93.597,150.641 89.613,150.359 88.886 C 150.327 88.802,149.953 89.455,149.528 90.337 M125.295 92.112 C 124.984 92.793,125.047 93.116,125.373 92.515 C 125.949 91.452,128.299 94.197,128.451 96.110 L 128.499 96.721 126.571 96.774 C 124.059 96.843,124.106 96.866,124.453 95.700 C 124.607 95.180,124.702 94.659,124.663 94.543 C 124.624 94.426,124.458 94.864,124.294 95.516 C 123.905 97.058,123.816 96.998,126.501 96.998 L 128.823 96.998 128.703 96.245 C 128.530 95.165,127.631 93.502,126.806 92.738 C 125.577 91.600,125.535 91.583,125.295 92.112 M133.770 92.067 C 133.767 92.149,133.891 92.607,134.045 93.083 C 134.199 93.559,134.386 94.573,134.460 95.335 L 134.596 96.721 137.921 96.727 L 141.247 96.733 137.968 96.676 L 134.688 96.620 134.688 95.681 C 134.688 94.533,133.808 91.067,133.770 92.067 M228.083 93.118 C 228.584 93.626,229.035 94.042,229.085 94.042 C 229.136 94.042,228.768 93.626,228.268 93.118 C 227.767 92.610,227.316 92.194,227.266 92.194 C 227.215 92.194,227.583 92.610,228.083 93.118 M124.804 93.672 C 124.734 93.891,124.719 94.111,124.770 94.162 C 124.821 94.213,124.919 94.075,124.988 93.857 C 125.058 93.638,125.073 93.418,125.022 93.367 C 124.971 93.316,124.873 93.454,124.804 93.672 M148.448 94.827 L 147.159 96.166 148.499 94.878 C 149.236 94.169,149.838 93.567,149.838 93.538 C 149.838 93.403,149.644 93.583,148.448 94.827 M240.823 95.381 L 240.092 96.166 240.878 95.436 C 241.608 94.757,241.748 94.596,241.608 94.596 C 241.578 94.596,241.224 94.949,240.823 95.381 M144.605 95.464 C 143.959 95.803,144.067 95.986,144.734 95.682 C 145.085 95.522,145.509 95.027,145.173 95.170 C 145.148 95.180,144.892 95.313,144.605 95.464 M141.894 96.443 L 141.432 96.591 141.894 96.597 C 142.148 96.600,142.522 96.531,142.725 96.443 L 143.095 96.285 142.725 96.290 C 142.522 96.293,142.148 96.362,141.894 96.443 M135.751 98.613 C 136.487 98.648,137.693 98.648,138.430 98.613 C 139.166 98.578,138.564 98.549,137.090 98.549 C 135.617 98.549,135.014 98.578,135.751 98.613 M122.910 98.795 C 123.291 98.835,123.915 98.835,124.296 98.795 C 124.677 98.755,124.365 98.723,123.603 98.723 C 122.841 98.723,122.529 98.755,122.910 98.795 " stroke="none" fill="#948c8c" fill-rule="evenodd"></path></g></svg>