<?xml version="1.0" standalone="no"?>
<!DOCTYPE svg PUBLIC "-//W3C//DTD SVG 20010904//EN"
 "http://www.w3.org/TR/2001/REC-SVG-20010904/DTD/svg10.dtd">
<svg version="1.0" xmlns="http://www.w3.org/2000/svg"
 width="234.000000pt" height="234.000000pt" viewBox="0 0 234.000000 234.000000"
 preserveAspectRatio="xMidYMid meet">
<metadata>
Created by potrace 1.11, written by Peter Selinger 2001-2013
</metadata>
<g transform="translate(0.000000,234.000000) scale(0.100000,-0.100000)"
fill="#000000" stroke="none">
<path d="M515 2211 c-77 -21 -234 -87 -294 -123 -99 -61 -132 -89 -163 -137
-51 -81 -30 -156 59 -208 26 -15 68 -30 93 -33 l45 -5 7 -62 c8 -74 27 -114
70 -147 42 -31 129 -64 191 -72 39 -5 51 -12 62 -34 22 -42 75 -84 141 -110
32 -13 60 -24 62 -25 3 -2 -14 -57 -98 -320 -27 -82 -94 -294 -150 -470 -56
-176 -103 -326 -105 -333 -5 -14 521 -16 960 -2 289 9 334 16 461 74 194 89
355 281 425 506 34 109 34 311 0 420 -71 231 -231 418 -435 510 -36 17 -66 34
-66 38 0 17 78 107 108 125 32 19 32 19 68 -2 40 -24 70 -20 79 8 20 65 -105
117 -184 77 -30 -16 -102 -90 -120 -125 -20 -36 -31 -23 -31 34 0 75 21 123
57 130 15 4 35 10 43 14 20 11 19 61 -1 74 -24 15 -84 0 -120 -30 -46 -39 -59
-79 -59 -183 l0 -90 -103 0 -103 0 -23 48 c-48 99 -151 240 -231 315 -130 123
-236 161 -370 133 -48 -10 -79 -12 -95 -6 -36 14 -145 20 -180 11z m1359 -885
l39 -23 -49 4 c-27 2 -56 -1 -64 -7 -13 -9 -12 -13 7 -29 23 -19 52 -78 33
-66 -6 3 -10 13 -10 20 0 8 -16 25 -35 37 -19 13 -35 26 -35 29 0 9 48 29 73
30 14 1 8 5 -17 11 -78 21 -164 -28 -186 -108 -15 -51 -8 -93 21 -140 24 -39
43 -45 34 -11 -6 21 -5 21 6 2 6 -11 23 -32 37 -47 31 -33 25 -35 -27 -8 -96
48 -127 164 -68 251 54 81 159 105 241 55z m-31 -166 c-8 -31 -73 -77 -73 -52
0 4 10 12 23 17 12 6 26 20 32 33 12 28 25 29 18 2z m105 11 c23 -14 10 -46
-18 -46 -16 0 -26 6 -28 19 -3 16 12 36 28 36 3 0 11 -4 18 -9z m-234 -47 c25
-10 19 -19 -14 -20 -29 -1 -37 6 -23 19 8 9 17 9 37 1z"/>
</g>
</svg>
